<svg xmlns="http://www.w3.org/2000/svg" viewBox="0 0 750 500"><g id="freepik--background-complete--inject-23"><polygon points="657.22 201.02 655.08 201.02 655.08 199.59 655.8 199.59 655.8 198.88 657.22 198.88 657.22 201.02" style="fill:#ebebeb"></polygon><path d="M652.19,201H649.3v-1.43h2.89Zm-5.77,0h-2.89v-1.43h2.89Zm-5.78,0h-2.89v-1.43h2.89Zm-5.78,0H632v-1.43h2.89Zm-5.78,0h-2.89v-1.43h2.89Zm-5.78,0h-2.89v-1.43h2.89Zm-5.77,0h-2.89v-1.43h2.89Zm-5.78,0h-2.89v-1.43h2.89ZM606,201h-2.89v-1.43H606Zm-5.78,0H597.3v-1.43h2.89Zm-5.78,0h-2.89v-1.43h2.89Zm-5.77,0h-2.89v-1.43h2.89Zm-5.78,0H580v-1.43h2.89Z" style="fill:#ebebeb"></path><polygon points="577.08 201.02 574.94 201.02 574.94 198.88 576.37 198.88 576.37 199.59 577.08 199.59 577.08 201.02" style="fill:#ebebeb"></polygon><path d="M576.37,196h-1.43V193.1h1.43Zm0-5.78h-1.43v-2.89h1.43Zm0-5.77h-1.43v-2.89h1.43Zm0-5.78h-1.43v-2.89h1.43Zm0-5.78h-1.43V170h1.43Zm0-5.78h-1.43v-2.89h1.43Zm0-5.78h-1.43v-2.88h1.43Zm0-5.77h-1.43v-2.89h1.43Zm0-5.78h-1.43v-2.89h1.43Zm0-5.78h-1.43V141.1h1.43Zm0-5.78h-1.43v-2.89h1.43Zm0-5.78h-1.43v-2.88h1.43Zm0-5.77h-1.43v-2.89h1.43Z" style="fill:#ebebeb"></path><polygon points="576.37 120.88 574.94 120.88 574.94 118.74 577.08 118.74 577.08 120.17 576.37 120.17 576.37 120.88" style="fill:#ebebeb"></polygon><path d="M652.19,120.16H649.3v-1.42h2.89Zm-5.77,0h-2.89v-1.42h2.89Zm-5.78,0h-2.89v-1.42h2.89Zm-5.78,0H632v-1.42h2.89Zm-5.78,0h-2.89v-1.42h2.89Zm-5.78,0h-2.89v-1.42h2.89Zm-5.77,0h-2.89v-1.42h2.89Zm-5.78,0h-2.89v-1.42h2.89Zm-5.78,0h-2.89v-1.42H606Zm-5.78,0H597.3v-1.42h2.89Zm-5.78,0h-2.89v-1.42h2.89Zm-5.77,0h-2.89v-1.42h2.89Zm-5.78,0H580v-1.42h2.89Z" style="fill:#ebebeb"></path><polygon points="657.22 120.88 655.8 120.88 655.8 120.17 655.08 120.17 655.08 118.74 657.22 118.74 657.22 120.88" style="fill:#ebebeb"></polygon><path d="M657.22,196H655.8V193.1h1.42Zm0-5.78H655.8v-2.89h1.42Zm0-5.77H655.8v-2.89h1.42Zm0-5.78H655.8v-2.89h1.42Zm0-5.78H655.8V170h1.42Zm0-5.78H655.8v-2.89h1.42Zm0-5.78H655.8v-2.88h1.42Zm0-5.77H655.8v-2.89h1.42Zm0-5.78H655.8v-2.89h1.42Zm0-5.78H655.8V141.1h1.42Zm0-5.78H655.8v-2.89h1.42Zm0-5.78H655.8v-2.88h1.42Zm0-5.77H655.8v-2.89h1.42Z" style="fill:#ebebeb"></path><rect x="570.61" y="195.27" width="10.08" height="10.08" style="fill:#fff"></rect><path d="M581.4,206.06H569.9v-11.5h11.5Zm-10.07-1.43H580V196h-8.65Z" style="fill:#ebebeb"></path><rect x="570.61" y="154.84" width="10.08" height="10.08" style="fill:#fff"></rect><path d="M581.4,165.63H569.9v-11.5h11.5Zm-10.07-1.43H580v-8.64h-8.65Z" style="fill:#ebebeb"></path><rect x="570.61" y="114.41" width="10.08" height="10.08" style="fill:#fff"></rect><path d="M581.4,125.2H569.9V113.7h11.5Zm-10.07-1.43H580v-8.64h-8.65Z" style="fill:#ebebeb"></path><rect x="651.47" y="195.27" width="10.08" height="10.08" style="fill:#fff"></rect><path d="M662.26,206.06h-11.5v-11.5h11.5Zm-10.07-1.43h8.64V196h-8.64Z" style="fill:#ebebeb"></path><rect x="651.47" y="154.84" width="10.08" height="10.08" style="fill:#fff"></rect><path d="M662.26,165.63h-11.5v-11.5h11.5Zm-10.07-1.43h8.64v-8.64h-8.64Z" style="fill:#ebebeb"></path><rect x="651.47" y="114.41" width="10.08" height="10.08" style="fill:#fff"></rect><path d="M662.26,125.2h-11.5V113.7h11.5Zm-10.07-1.43h8.64v-8.64h-8.64Z" style="fill:#ebebeb"></path><rect x="611.04" y="114.41" width="10.08" height="10.08" style="fill:#fff"></rect><path d="M621.83,125.2h-11.5V113.7h11.5Zm-10.07-1.43h8.65v-8.64h-8.65Z" style="fill:#ebebeb"></path><rect x="611.04" y="195.27" width="10.08" height="10.08" style="fill:#fff"></rect><path d="M621.83,206.06h-11.5v-11.5h11.5Zm-10.07-1.43h8.65V196h-8.65Z" style="fill:#ebebeb"></path><path d="M617.06,169.49H600.92l-6.27,17.61h6.11v1.54H588.3V187.1h3.82l20.78-56h6.69l20.53,56h3.75v1.54H617.22V187.1H623Zm-15.4-1.79h14.75l-7.09-21.35Z" style="fill:#dbdbdb"></path><path d="M313.28,92.33s-.29,16.88-11.1,36H287c-10.8-19.14-11.1-36-11.1-36,15.63-8.74,16-28.31,16-28.31h1.58V95a4.78,4.78,0,1,0,2.19,0V64h1.58S297.65,83.59,313.28,92.33Z" style="fill:#ebebeb"></path><rect x="283.32" y="126.5" width="22.49" height="9.47" style="fill:#c7c7c7"></rect><path d="M346.79,114.67h-1.51a50.71,50.71,0,1,0-101.42,0h-1.52a52.23,52.23,0,1,1,104.45,0Z" style="fill:#ebebeb"></path><rect x="241.92" y="61.81" width="104.11" height="1.52" style="fill:#ebebeb"></rect><rect x="237.74" y="109.31" width="10.71" height="10.71" style="fill:#fff"></rect><path d="M249.21,120.78H237V108.56h12.23Zm-10.71-1.52h9.19v-9.19H238.5Z" style="fill:#ebebeb"></path><rect x="237.74" y="57.22" width="10.71" height="10.71" style="fill:#fff"></rect><path d="M249.21,68.68H237V56.46h12.23ZM238.5,67.17h9.19V58H238.5Z" style="fill:#ebebeb"></path><rect x="340.68" y="109.31" width="10.71" height="10.71" style="fill:#fff"></rect><path d="M352.15,120.78H339.92V108.56h12.23Zm-10.71-1.52h9.19v-9.19h-9.19Z" style="fill:#ebebeb"></path><rect x="340.68" y="57.22" width="10.71" height="10.71" style="fill:#fff"></rect><path d="M352.15,68.68H339.92V56.46h12.23Zm-10.71-1.51h9.19V58h-9.19Z" style="fill:#ebebeb"></path><path d="M82,152V368.14H297.78ZM121.54,250l78.69,78.69H121.66Z" style="fill:#dbdbdb"></path><path d="M82,152V368.15h215.8L89.57,159.65l-1-1ZM121.54,250l78.69,78.68H121.65Z" style="fill:#ebebeb"></path><rect x="81.97" y="161.15" width="7.42" height="1.03" style="fill:#c7c7c7"></rect><rect x="81.97" y="165.96" width="4.37" height="1.03" style="fill:#c7c7c7"></rect><rect x="81.97" y="170.75" width="4.37" height="1.03" style="fill:#c7c7c7"></rect><rect x="81.97" y="175.55" width="4.37" height="1.03" style="fill:#c7c7c7"></rect><rect x="81.97" y="180.36" width="4.37" height="1.03" style="fill:#c7c7c7"></rect><rect x="81.97" y="185.15" width="4.37" height="1.05" style="fill:#c7c7c7"></rect><rect x="81.97" y="189.95" width="4.37" height="1.03" style="fill:#c7c7c7"></rect><rect x="81.97" y="194.76" width="7.42" height="1.03" style="fill:#c7c7c7"></rect><rect x="81.97" y="199.57" width="4.37" height="1.03" style="fill:#c7c7c7"></rect><rect x="81.97" y="204.35" width="4.37" height="1.03" style="fill:#c7c7c7"></rect><rect x="81.97" y="209.16" width="4.37" height="1.03" style="fill:#c7c7c7"></rect><rect x="81.97" y="213.97" width="4.37" height="1.03" style="fill:#c7c7c7"></rect><rect x="81.97" y="218.76" width="4.37" height="1.03" style="fill:#c7c7c7"></rect><rect x="81.97" y="223.56" width="4.37" height="1.03" style="fill:#c7c7c7"></rect><rect x="81.97" y="228.37" width="7.42" height="1.03" style="fill:#c7c7c7"></rect><rect x="81.97" y="233.16" width="4.37" height="1.03" style="fill:#c7c7c7"></rect><rect x="81.97" y="237.96" width="4.37" height="1.03" style="fill:#c7c7c7"></rect><rect x="81.97" y="242.77" width="4.37" height="1.03" style="fill:#c7c7c7"></rect><rect x="81.97" y="247.56" width="4.37" height="1.05" style="fill:#c7c7c7"></rect><rect x="81.97" y="252.36" width="4.37" height="1.03" style="fill:#c7c7c7"></rect><rect x="81.97" y="257.17" width="4.37" height="1.03" style="fill:#c7c7c7"></rect><rect x="81.97" y="261.97" width="7.42" height="1.03" style="fill:#c7c7c7"></rect><rect x="81.97" y="266.76" width="4.37" height="1.03" style="fill:#c7c7c7"></rect><rect x="81.97" y="271.57" width="4.37" height="1.03" style="fill:#c7c7c7"></rect><rect x="81.97" y="276.38" width="4.37" height="1.03" style="fill:#c7c7c7"></rect><rect x="81.97" y="281.16" width="4.37" height="1.03" style="fill:#c7c7c7"></rect><rect x="81.97" y="285.97" width="4.37" height="1.03" style="fill:#c7c7c7"></rect><rect x="81.97" y="290.78" width="4.37" height="1.03" style="fill:#c7c7c7"></rect><rect x="81.97" y="295.57" width="7.42" height="1.05" style="fill:#c7c7c7"></rect><rect x="81.97" y="300.37" width="4.37" height="1.03" style="fill:#c7c7c7"></rect><rect x="81.97" y="305.18" width="4.37" height="1.03" style="fill:#c7c7c7"></rect><rect x="81.97" y="309.98" width="4.37" height="1.03" style="fill:#c7c7c7"></rect><rect x="81.97" y="314.77" width="4.37" height="1.03" style="fill:#c7c7c7"></rect><rect x="81.97" y="319.58" width="4.37" height="1.03" style="fill:#c7c7c7"></rect><rect x="81.97" y="324.38" width="4.37" height="1.03" style="fill:#c7c7c7"></rect><rect x="81.97" y="329.17" width="7.42" height="1.03" style="fill:#c7c7c7"></rect><rect x="81.97" y="333.98" width="4.37" height="1.03" style="fill:#c7c7c7"></rect><rect x="81.97" y="338.78" width="4.37" height="1.03" style="fill:#c7c7c7"></rect><rect x="81.97" y="343.57" width="4.37" height="1.03" style="fill:#c7c7c7"></rect><rect x="81.97" y="348.38" width="4.37" height="1.03" style="fill:#c7c7c7"></rect><rect x="81.97" y="353.19" width="4.37" height="1.03" style="fill:#c7c7c7"></rect><rect x="81.97" y="357.97" width="4.37" height="1.05" style="fill:#c7c7c7"></rect></g><g id="freepik--Shadows--inject-23"><ellipse cx="378.66" cy="393.22" rx="115.12" ry="18.19" style="fill:#ebebeb"></ellipse><ellipse cx="186.97" cy="431.25" rx="115.12" ry="18.19" style="fill:#ebebeb"></ellipse><ellipse cx="563.03" cy="431.25" rx="115.12" ry="18.19" style="fill:#ebebeb"></ellipse></g><g id="freepik--Floor--inject-23"><polygon points="81.97 368.06 155.22 367.81 228.48 367.73 375 367.56 521.52 367.73 594.77 367.81 668.03 368.06 594.77 368.3 521.52 368.39 375 368.56 228.48 368.39 155.22 368.3 81.97 368.06" style="fill:#263238"></polygon></g><g id="freepik--Plant--inject-23"><path d="M632.82,306.26s16.84-3.81,26.07-12.32,14.38-23.73,14.38-23.73a143.76,143.76,0,0,0-18.88,5,31.82,31.82,0,0,0-5.72,8.07,38.87,38.87,0,0,1,0-5.77,25.94,25.94,0,0,0-6,3.64C635,287.81,632.82,306.26,632.82,306.26Z" style="fill:#FFB30E"></path><path d="M662.76,277.61c2.29-1.59,4.63-3.12,6.91-4.72a.13.13,0,0,0-.14-.23c-4.33,2.6-8.61,5.37-12.75,8.27-1.44,1-2.86,2.06-4.26,3.13.1-.16.2-.33.29-.5.51-.84,1-1.67,1.57-2.5a34.73,34.73,0,0,1,3.58-4.77c0-.06,0-.14-.08-.08-1.31,1.51-2.62,3-3.82,4.61-.57.76-1.1,1.55-1.6,2.36-.26.42-.52.84-.76,1.27l-.25.44c-2.18,1.71-4.3,3.49-6.32,5.37-1.25,1.17-2.45,2.37-3.62,3.62.65-2,1.22-4.1,2-6.11,0-.07-.09-.09-.11,0-.74,2.1-1.54,4.21-2.1,6.38-1.3,1.39-2.53,2.83-3.69,4.34l.06-.28q.29-1.19.6-2.37c.41-1.52.86-3,1.37-4.53a26.3,26.3,0,0,1,4.53-8.54c0-.06,0-.14-.09-.08a32.78,32.78,0,0,0-6.44,13.46c-.19.72-.35,1.44-.52,2.16-.09.38-.19.77-.25,1.17-.51.68-1,1.38-1.49,2.09a72.92,72.92,0,0,0-7.12,14,159.8,159.8,0,0,0-5.4,16.82.09.09,0,0,0,.17.05c3.3-9.86,6.66-19.85,12.3-28.66,1.19-1.86,2.48-3.65,3.84-5.38a31.33,31.33,0,0,0,8.19-1.63,35.93,35.93,0,0,0,8.21-4,49.77,49.77,0,0,0,4.2-3.18.05.05,0,1,0-.07-.08,33.49,33.49,0,0,1-7.72,4.66,41,41,0,0,1-8.49,2.85c-1.24.27-2.5.47-3.77.65a70.05,70.05,0,0,1,5-5.5c.57-.57,1.16-1.11,1.74-1.66a39.57,39.57,0,0,1,6.22-3.57c2.76-1.33,5.48-2.74,8.21-4.13,1.54-.79,3.07-1.59,4.62-2.35.07,0,0-.13-.06-.09-2.76,1.33-5.58,2.58-8.37,3.86-2.63,1.21-5.29,2.41-7.81,3.83l-.32.19q3.42-3,7.06-5.7C658.19,280.85,660.46,279.2,662.76,277.61Z" style="fill:#263238"></path><path d="M661.8,286.29c-1.37.6-2.76,1.13-4.12,1.77s-2.71,1.41-4,2.2c-.06,0,0,.11.06.08,1.34-.64,2.7-1.24,4-1.91s2.71-1.42,4.1-2C661.9,286.37,661.87,286.26,661.8,286.29Z" style="fill:#263238"></path><path d="M578.12,221.94a24.06,24.06,0,0,1,5,14c.05,1.51-.19,3.62-.36,6.09a39.91,39.91,0,0,1,11,9.39,19.94,19.94,0,0,0-11.11-2.65,33.67,33.67,0,0,0,.65,5,18.9,18.9,0,0,1,7.14,1.41,16,16,0,0,0-6.44,1.28C587,266,596,275.83,620.59,280a51.67,51.67,0,0,0-4.37-34.66C608.84,230.81,578.12,221.94,578.12,221.94Z" style="fill:#FFB30E"></path><path d="M629.11,320.32q-.65-6.12-1.59-12.2a244.22,244.22,0,0,0-5-24.11A95.85,95.85,0,0,0,619,273a16.24,16.24,0,0,0,.09-2c0-.79,0-1.58,0-2.37,0-1.58-.1-3.15-.23-4.73a57.68,57.68,0,0,0-1.51-9.23c-.45-1.76-1-3.49-1.49-5.22a.06.06,0,0,0-.11,0,68.63,68.63,0,0,1,1.82,9.22,86.58,86.58,0,0,1,.82,9.25c0,.84.05,1.69.05,2.54,0,.35,0,.72,0,1.08a78.86,78.86,0,0,0-4.15-8.59,103.32,103.32,0,0,0-8.43-12.61,5.35,5.35,0,0,0-.2-1.38l-.36-1.65c-.25-1.12-.54-2.24-.84-3.36-.61-2.23-1.42-4.39-2.12-6.59a.06.06,0,0,0-.11,0c.65,2.19,1.08,4.45,1.58,6.67.25,1.1.49,2.2.73,3.3.12.54.24,1.09.35,1.65l0,.12c-1-1.26-2-2.5-3-3.72-4.71-5.51-9.87-10.6-15.06-15.65-.64-.62-1.29-1.23-1.94-1.84-.05-.05-.13,0-.08.08,5,5.18,9.85,10.41,14.48,15.89q1.65,2,3.24,4l-1.68-1.12c-1.43-.94-2.88-1.85-4.38-2.69s-3-1.65-4.54-2.41-3.26-1.42-4.79-2.31c-.06,0-.12.07-.05.1a35.8,35.8,0,0,1,4.49,2.49c1.5.89,3,1.79,4.47,2.72s2.9,1.82,4.34,2.76c1.2.78,2.38,1.63,3.62,2.35a116.71,116.71,0,0,1,7.89,11.48,84.09,84.09,0,0,1,4.08,7.74l-.88-.38-2.26-1c-1.44-.65-2.9-1.28-4.35-1.91-2.77-1.2-5.57-2.3-8.28-3.62a36.63,36.63,0,0,1-4.42-2.46.06.06,0,0,0-.06.1c5,3.48,10.71,5.94,16.3,8.41l2.43,1.07c.66.3,1.33.63,2,.89a85.36,85.36,0,0,1,4.16,11.41A229.07,229.07,0,0,1,626,305.38c1.42,8.05,2.37,16.15,3.11,24.29.09,1,.18,2,.3,3a.32.32,0,0,0,.64,0C630,328.56,629.54,324.43,629.11,320.32Z" style="fill:#263238"></path><path d="M614.12,252.29c-.45-2.51-1.11-4.95-1.79-7.41,0-.07-.13,0-.11,0,.62,2.4,1.07,4.86,1.52,7.3s.87,5,1.22,7.5c0,0,.07,0,.07,0A63.86,63.86,0,0,0,614.12,252.29Z" style="fill:#263238"></path><path d="M603.51,259.08a44,44,0,0,0-5.36-3c-.9-.47-1.81-.91-2.72-1.35s-1.91-.83-2.84-1.3c-.06,0-.12.07-.05.1.9.45,1.75,1,2.64,1.48l2.73,1.5a60,60,0,0,0,5.46,2.82A.14.14,0,0,0,603.51,259.08Z" style="fill:#263238"></path><path d="M633.13,277.1s15.58-3.72,22.73-14.18c6.83-10,9-27,9.22-28.49-.29,1.37-3.5,16.25-14.11,23.17C642.85,262.91,635,267.27,633.13,277.1Z" style="fill:#263238;opacity:0.1"></path><path d="M647.51,250.18a19.85,19.85,0,0,0-5.75,9.46s0,.05,0,0a23.31,23.31,0,0,1,5.77-9.4A.05.05,0,1,0,647.51,250.18Z" style="fill:#263238"></path><path d="M633.13,277.63s15.58-3.73,22.73-14.18c6.83-10,9-27,9.22-28.49a.87.87,0,0,0,0-.11s-7.47,10.63-15.32,13.33S630.87,260.26,633.13,277.63Z" style="fill:#FFB30E"></path><path d="M662.33,240.19a63.85,63.85,0,0,1-4.81,8.23,33.41,33.41,0,0,1-6.41,6.6c-2.12,1.68-4.36,3.2-6.5,4.85l0-.08c.4-.6.83-1.18,1.27-1.74.9-1.14,1.87-2.22,2.85-3.28,1.94-2.1,3.91-4.16,5.65-6.44a23.87,23.87,0,0,0,2.5-4c0-.07-.08-.1-.11,0-2.53,5.27-7.57,8.64-11.18,13.08-.51.64-1,1.29-1.44,2a7.93,7.93,0,0,0-.89,1.59,32.56,32.56,0,0,0-5.32,5.37,22.33,22.33,0,0,1,.63-3,15.31,15.31,0,0,1,1.65-3.94c0-.06-.06-.13-.1-.06a18.11,18.11,0,0,0-1.81,3.92,13.36,13.36,0,0,0-.57,3.36h0a28.83,28.83,0,0,0-2.1,3.27c.06-.33.12-.66.19-1,.31-1.56.65-3.11,1-4.64a27.73,27.73,0,0,1,3.75-8.77c0-.06,0-.13-.09-.07a33.45,33.45,0,0,0-4.16,8.59c-.49,1.53-.89,3.08-1.24,4.65-.17.77-.32,1.54-.47,2.31-.08.4-.16.81-.23,1.22a55.71,55.71,0,0,0-3.59,10.56,154.6,154.6,0,0,0-3.32,19.7,164.26,164.26,0,0,0-1.08,20.92c0,.87.07,1.75.12,2.62,0,.23.35.26.36,0,.15-3.45.24-6.91.44-10.37s.51-6.91.88-10.35a182.41,182.41,0,0,1,3.25-20.14c1.26-5.7,2.9-11.43,6-16.42a31.06,31.06,0,0,1,5.62-6.69c2.18-2,4.57-3.68,6.88-5.49a38.17,38.17,0,0,0,6.31-6.07,49.47,49.47,0,0,0,4.95-8c.37-.71.75-1.41,1.12-2.11C662.46,240.18,662.37,240.12,662.33,240.19Z" style="fill:#263238"></path><path d="M659.64,242.47a52.82,52.82,0,0,1-3.47,6.07,0,0,0,0,0,.07.05,42.26,42.26,0,0,0,3.51-6.08C659.78,242.44,659.67,242.4,659.64,242.47Z" style="fill:#263238"></path><path d="M576,270.73s-.24,22.15,13,28.54,20.34,1.06,29.34,3.21l0,0c-.35-.52-6.77-9.75-17-12.29C590.78,287.55,579.14,280,576,270.73Z" style="fill:#FFB30E"></path><path d="M576,270.73s-.24,22.15,13,28.54,20.34,1.06,29.34,3.21l0,0a50.32,50.32,0,0,0-15-4.44C594.86,297,578.91,291.58,576,270.73Z" style="opacity:0.2"></path><path d="M619.15,302.34a22.41,22.41,0,0,0-5.27-3.56c-.28-.14-.57-.25-.86-.37a5.47,5.47,0,0,0-.45-.51c-.39-.41-.81-.81-1.24-1.18a17.36,17.36,0,0,0-2.67-1.92c-2.19-1.29-4.59-2.2-6.84-3.39-.06,0-.12.06-.05.1,1.11.57,2.18,1.21,3.26,1.84s2.12,1.19,3.14,1.85a21.87,21.87,0,0,1,2.62,2c.23.2.46.42.68.65a34.64,34.64,0,0,0-4.47-1.19c-2.43-.49-4.88-.84-7.3-1.36a35.61,35.61,0,0,1-3.51-.94c-1.1-.89-2.19-1.77-3.23-2.73a26.27,26.27,0,0,1-3.43-3.79c0-.06-.14,0-.09.06a40.47,40.47,0,0,0,5.42,6c-.57-.22-1.13-.45-1.69-.7a27.33,27.33,0,0,1-11.28-9.39c0-.06-.14,0-.1.06a31,31,0,0,0,9.13,8.76,27.44,27.44,0,0,0,5.77,2.73,54.79,54.79,0,0,0,7.16,1.7,49.76,49.76,0,0,1,7,1.67,20.81,20.81,0,0,1,5.88,3.09,27.42,27.42,0,0,1,7.93,9.84,49.08,49.08,0,0,1,4.37,16.19c0,.23.4.23.38,0C628.81,318.49,626.32,308.81,619.15,302.34Z" style="fill:#263238"></path><path d="M603.78,295.12a7.57,7.57,0,0,0-2.72-2.46,10.1,10.1,0,0,1-3.23-2.68c-.05-.06-.15,0-.1.06a10.92,10.92,0,0,0,2.86,2.56,9.91,9.91,0,0,1,3.11,2.57C603.74,295.23,603.82,295.18,603.78,295.12Z" style="fill:#263238"></path><polygon points="610.81 318.68 611.41 330.86 613.26 368.06 641.03 368.06 642.88 330.86 643.48 318.68 610.81 318.68" style="fill:#455a64"></polygon><polygon points="610.81 318.68 611.41 330.86 642.88 330.86 643.48 318.68 610.81 318.68" style="fill:#263238"></polygon><rect x="608.86" y="313.6" width="36.56" height="11.61" transform="translate(1254.29 638.82) rotate(180)" style="fill:#455a64"></rect></g><g id="freepik--pantone-guide--inject-23"><rect x="332.58" y="92.32" width="98.95" height="311.12" transform="translate(-23.64 454.81) rotate(-60)" style="fill:#dbdbdb"></rect><rect x="236.03" y="164.27" width="76.97" height="43.03" transform="translate(-23.64 330.63) rotate(-60)" style="fill:#FFB30E"></rect><rect x="281.2" y="190.35" width="76.97" height="43.03" transform="translate(-23.64 382.79) rotate(-60)" style="fill:#FFB30E"></rect><rect x="326.38" y="216.43" width="76.97" height="43.03" transform="translate(-23.64 434.95) rotate(-60)" style="fill:#FFB30E"></rect><rect x="371.55" y="242.51" width="76.97" height="43.03" transform="translate(-23.64 487.11) rotate(-60)" style="fill:#FFB30E"></rect><rect x="416.72" y="268.59" width="76.97" height="43.03" transform="translate(-23.64 539.27) rotate(-60)" style="fill:#FFB30E"></rect><rect x="236.03" y="164.27" width="76.97" height="43.03" transform="translate(-23.64 330.63) rotate(-60)" style="opacity:0.30000000000000004"></rect><rect x="281.2" y="190.35" width="76.97" height="43.03" transform="translate(-23.64 382.79) rotate(-60)" style="opacity:0.1"></rect><rect x="371.55" y="242.51" width="76.97" height="43.03" transform="translate(-23.64 487.11) rotate(-60)" style="fill:#fff;opacity:0.2"></rect><rect x="416.72" y="268.59" width="76.97" height="43.03" transform="translate(-23.64 539.27) rotate(-60)" style="fill:#fff;opacity:0.4"></rect><path d="M503.05,310.61a9.09,9.09,0,1,1-12.42,3.33A9.1,9.1,0,0,1,503.05,310.61Z" style="fill:#263238"></path><rect x="314.57" y="162.93" width="98.95" height="311.12" transform="translate(45.56 682.53) rotate(-90)" style="fill:#dbdbdb"></rect><rect x="201.38" y="296.97" width="76.97" height="43.03" transform="translate(-78.63 558.35) rotate(-90)" style="fill:#FFB30E"></rect><rect x="253.54" y="296.97" width="76.97" height="43.03" transform="translate(-26.46 610.51) rotate(-90)" style="fill:#FFB30E"></rect><rect x="305.7" y="296.97" width="76.97" height="43.03" transform="translate(25.7 662.67) rotate(-90)" style="fill:#FFB30E"></rect><rect x="357.86" y="296.97" width="76.97" height="43.03" transform="translate(77.86 714.83) rotate(-90)" style="fill:#FFB30E"></rect><rect x="410.02" y="296.97" width="76.97" height="43.03" transform="translate(130.02 767) rotate(-90)" style="fill:#FFB30E"></rect><rect x="201.38" y="296.97" width="76.97" height="43.03" transform="translate(-78.63 558.35) rotate(-90)" style="opacity:0.30000000000000004"></rect><rect x="253.54" y="296.97" width="76.97" height="43.03" transform="translate(-26.46 610.51) rotate(-90)" style="opacity:0.1"></rect><rect x="357.86" y="296.97" width="76.97" height="43.03" transform="translate(77.86 714.83) rotate(-90)" style="fill:#fff;opacity:0.2"></rect><rect x="410.02" y="296.97" width="76.97" height="43.03" transform="translate(130.02 767) rotate(-90)" style="fill:#fff;opacity:0.4"></rect><path d="M500.19,312.32a9.1,9.1,0,1,1-9.09,9.1A9.09,9.09,0,0,1,500.19,312.32Z" style="fill:#263238"></path></g><g id="freepik--character-2--inject-23"><path d="M398.65,133.08c2.71-3.74,7.64-4.92,12.54-4.22s10.84,2.86,11.88,11.21c.84,6.78-.8,13.55-.31,21.15s9.85,25.57-2.88,35.45c-11.43,8.88-36,3-37.77-13.67-1.38-13.2,13-26.41,14.31-31.75S395.68,137.17,398.65,133.08Z" style="fill:#263238"></path><path d="M396.92,140.69A30.44,30.44,0,0,1,395.45,152a11.14,11.14,0,0,1-1.35,2.61c-.54.8-1.12,1.56-1.7,2.32-1.17,1.5-2.33,3-3.41,4.52a39.54,39.54,0,0,0-5.27,9.89,31.15,31.15,0,0,0-1.66,11.12,26.56,26.56,0,0,1-.17-5.71,28.6,28.6,0,0,1,1.07-5.65,35.32,35.32,0,0,1,5.17-10.25c1.11-1.57,2.3-3.06,3.48-4.54a19.15,19.15,0,0,0,3.07-4.62,24.64,24.64,0,0,0,1.52-5.39A48.13,48.13,0,0,0,396.92,140.69Z" style="fill:#263238"></path><path d="M423.07,145.82c.14,3.87.13,7.74.46,11.57a49.15,49.15,0,0,0,.81,5.68c.38,1.84,1,3.67,1.59,5.52s1.08,3.74,1.49,5.65a34.4,34.4,0,0,1,.71,5.83,21.65,21.65,0,0,1-.7,5.83,14.82,14.82,0,0,1-2.82,5.1,15.82,15.82,0,0,0,2.32-5.23,21.14,21.14,0,0,0,.39-5.67,51.11,51.11,0,0,0-2.4-11.2c-.53-1.85-1.18-3.68-1.56-5.64a38.08,38.08,0,0,1-.63-5.82A95.79,95.79,0,0,1,423.07,145.82Z" style="fill:#263238"></path><path d="M409.93,178.28c-6.23,3.79-35.62,19.4-45.9,14.2-12.45-6.3-25.6-18.47-30-25.8-2.49-4.1,18.06-15.88,20.76-12.47,4.25,5.37,14.58,13.26,16.59,14.78s24.43-1,36.58-1.85C418.87,166.39,414.32,175.62,409.93,178.28Z" style="fill:#f7a9a0"></path><path d="M326.84,157c1.87,4.7,9.45,12.8,12,14s16.79-11.18,16.61-14.12-7.7-18.26-12.18-20.8S324.9,152.1,326.84,157Z" style="fill:#f7a9a0"></path><path d="M354.66,154.06a42,42,0,0,1,1.8-12.06c1.57-4.61,4.43-11.27,2-12.21-5-1.93-12.14,14.7-12.14,14.7s-2,7.84,2.84,10.19A5.33,5.33,0,0,0,354.66,154.06Z" style="fill:#f7a9a0"></path><path d="M349.41,141.39c-.44,2.64-3.3.61-3.3.61s3.41,3.92,1.91,6.47-4.83-.13-5.08-.31c.18.21,3.23,3.89,1.45,6.3s-4.79-.67-5-.88c.11.25,1.47,3.58-.3,5.1-3,2.62-6.74-5.8-9.81-6.85,0,0-2.36,5-2.46,5.13s-3.7-7.94-2.06-12a2.79,2.79,0,0,1,3-1.75s-1.47-2.43-.13-4.37c.69-1,2.89-.77,2.89-.77a3.5,3.5,0,0,1,.2-3.64c1-1.32,3.08-.9,3.08-.9s-.17-2.4,1.32-3.4C338.18,128.09,350.34,135.73,349.41,141.39Z" style="fill:#f7a9a0"></path><path d="M334.18,133.55a0,0,0,0,1,0-.07,24.91,24.91,0,0,1,12.06,8.62c.1.13-.07.34-.2.21A51.39,51.39,0,0,0,334.18,133.55Z" style="fill:#263238"></path><path d="M330.52,138s0-.11.05-.09a23.33,23.33,0,0,1,12.58,10.21c.09.17,0,.42-.12.23C341,145.2,334.65,140.13,330.52,138Z" style="fill:#263238"></path><path d="M339.49,154c-2.82-4.67-6.85-7.95-11.48-10.74-.06,0,0-.12.06-.1,2.63.75,5.39,2.83,7.41,4.63a14.39,14.39,0,0,1,4.17,6.11C339.68,154,339.55,154.1,339.49,154Z" style="fill:#263238"></path><path d="M346.2,142c.11.16-.24.15-.13.31.45.67,2.81,5,1.6,6.22-1,1-3,.4-3.69-.14L342.26,147l1.15,1.88a8.87,8.87,0,0,1,1.12,2.68,3.24,3.24,0,0,1-.34,2.61,1.84,1.84,0,0,1-2.19.74,5.54,5.54,0,0,1-2.25-1.63L338,151.36l1,2.4a8.11,8.11,0,0,1,.57,2.08,3.48,3.48,0,0,1-.23,2,1.67,1.67,0,0,1-1.48.93,3.62,3.62,0,0,1-1.86-.84,28.17,28.17,0,0,1-3.24-3.14c-.52-.55-1-1.11-1.6-1.64a5.65,5.65,0,0,0-1.87-1.31,5.87,5.87,0,0,1,1.72,1.46c.5.56,1,1.15,1.46,1.75a25,25,0,0,0,3.14,3.38,4.22,4.22,0,0,0,2.21,1.07,2.33,2.33,0,0,0,2.22-1.29,4.27,4.27,0,0,0,.36-2.46,9.51,9.51,0,0,0-.6-2.33l-.73.45a6.32,6.32,0,0,0,2.64,1.95,2.65,2.65,0,0,0,1.8,0,3,3,0,0,0,1.39-1.12,4,4,0,0,0,.44-3.29,9.79,9.79,0,0,0-1.29-2.94l-.57.52c.89.66,3.08,1.59,4.79.21C350.23,147.08,346.87,142.75,346.2,142Z" style="fill:#263238"></path><path d="M346.11,142a5.23,5.23,0,0,0,1.58.44,1.24,1.24,0,0,0,1.17-.48,2.6,2.6,0,0,0,.31-1.4c0-.54,0-1.11-.1-1.69a4.54,4.54,0,0,1,.69,1.63,2.55,2.55,0,0,1-.29,1.9,1.8,1.8,0,0,1-.87.62,1.82,1.82,0,0,1-1,0A2.83,2.83,0,0,1,346.11,142Z" style="fill:#263238"></path><path d="M333.78,172.05c.23-.09,22.83-18,22.83-18s13,13.79,15.6,14.37,33.28-2,39.9-1.88,7.76,6.31-3.37,13.14-31.1,16.23-42.4,14.64S333.78,172.05,333.78,172.05Z" style="fill:#a6a6a6"></path><path d="M387.1,173.56a8.09,8.09,0,0,1,0-4.07,6.81,6.81,0,0,1,.26,2A7.07,7.07,0,0,1,387.1,173.56Z" style="fill:#fff"></path><path d="M364.64,184.44a7.8,7.8,0,0,1,0-4.07,8.09,8.09,0,0,1,0,4.07Z" style="fill:#fff"></path><path d="M345,173.13a8.09,8.09,0,0,1,0-4.07,7.8,7.8,0,0,1,0,4.07Z" style="fill:#fff"></path><path d="M378.84,181.56a8.13,8.13,0,0,1,4.08,0,7.14,7.14,0,0,1-2,.26A7.51,7.51,0,0,1,378.84,181.56Z" style="fill:#fff"></path><path d="M348,182.48a7.51,7.51,0,0,1,2-.26,7.14,7.14,0,0,1,2,.26,8.13,8.13,0,0,1-4.08,0Z" style="fill:#fff"></path><path d="M362.6,165.88a7.8,7.8,0,0,1,4.07,0,8.09,8.09,0,0,1-4.07,0Z" style="fill:#fff"></path><path d="M401.57,169.49a7,7,0,0,1,2-.26,7.14,7.14,0,0,1,2,.26,7.14,7.14,0,0,1-2,.26A7.39,7.39,0,0,1,401.57,169.49Z" style="fill:#fff"></path><path d="M398.59,177.79a7.47,7.47,0,0,1-1.63-1.26,7.14,7.14,0,0,1-1.25-1.62,7.85,7.85,0,0,1,2.88,2.88Z" style="fill:#fff"></path><path d="M374.41,192.55a7.14,7.14,0,0,1-1.62-1.25,7.24,7.24,0,0,1-1.26-1.63,7.2,7.2,0,0,1,1.63,1.25A7.43,7.43,0,0,1,374.41,192.55Z" style="fill:#fff"></path><path d="M356.78,174.61a7.54,7.54,0,0,1-1.63-1.26,7.14,7.14,0,0,1-1.25-1.62,7.14,7.14,0,0,1,1.62,1.25A7.24,7.24,0,0,1,356.78,174.61Z" style="fill:#fff"></path><path d="M390.82,184.14a7.24,7.24,0,0,1-1.26,1.63,7.14,7.14,0,0,1-1.62,1.25,7.14,7.14,0,0,1,1.25-1.62A7.24,7.24,0,0,1,390.82,184.14Z" style="fill:#fff"></path><path d="M408.87,176.73a7.54,7.54,0,0,1-1.26,1.63,7.37,7.37,0,0,1-1.62,1.25,7.14,7.14,0,0,1,1.25-1.62A7.24,7.24,0,0,1,408.87,176.73Z" style="fill:#fff"></path><path d="M375,173.85a7.85,7.85,0,0,1-2.88,2.88,8.27,8.27,0,0,1,2.88-2.88Z" style="fill:#fff"></path><path d="M353.5,158.92a8.27,8.27,0,0,1-2.88,2.88,7.85,7.85,0,0,1,2.88-2.88Z" style="fill:#fff"></path><path d="M339.82,176.54c8.91-8.45,19.5-15.9,21.26-17.34.08-.07.18.08.09.15-1.79,1.31-13,11.21-21.25,17.35C339.82,176.77,339.73,176.62,339.82,176.54Z" style="fill:#263238"></path><path d="M363,400.72c2.15.2,60.71-14.13,62.54-16.05.23-.21-1-5.53-2.7-12.79l0-.14c-1.08-4.61-18.4-41.77-18.4-41.77L366.42,340.8l17.48,34.48s-7.12,5.21-13.22,10.15l0,0a81.76,81.76,0,0,0-7.7,6.64C361.18,394.39,360.8,400.55,363,400.72Z" style="fill:#f7a9a0"></path><path d="M363,400.72c2.15.2,60.7-14.14,62.55-16.05.22-.21-1-5.53-2.7-12.79l0-.14c-.4-1.71-3.07-8-6.25-15.12-6.24,1.72-28.63,7.92-36.75,10.49l4.14,8.17s-7.12,5.21-13.23,10.15v0a83.85,83.85,0,0,0-7.7,6.63C361.18,394.39,360.79,400.55,363,400.72Z" style="fill:#fff"></path><path d="M362.76,401c2.21.18,60.81-14.31,62.69-16.27.72-.75-.63-10-3.91-19.79l-37.76,9.39s-19.22,15.41-21.06,17.79S360.54,400.83,362.76,401Z" style="fill:#FFB30E"></path><path d="M363,398.45c9.76-2.67,49.39-12.52,59.24-14.42.08,0,.1,0,0,.07-9.62,2.85-49.33,12.38-59.22,14.51C362.85,398.66,362.81,398.51,363,398.45Z" style="fill:#263238"></path><path d="M366,389.08a8.15,8.15,0,0,1,6.47.94,7.9,7.9,0,0,1,3.49,4.7c0,.06-.1.09-.12,0A9.4,9.4,0,0,0,366,389.2.06.06,0,0,1,366,389.08Z" style="fill:#263238"></path><path d="M380.94,376.08c3.92-1,8.82-.77,12.06,1.84.12.1,0,.28-.15.25A55.13,55.13,0,0,0,381,376.58.25.25,0,0,1,380.94,376.08Z" style="fill:#263238"></path><path d="M378.2,378c3.92-1,8.82-.77,12.06,1.84.12.11,0,.28-.16.25a56.23,56.23,0,0,0-11.85-1.59A.25.25,0,0,1,378.2,378Z" style="fill:#263238"></path><path d="M375.46,379.94c3.91-1,8.82-.76,12.05,1.85.13.1,0,.28-.15.24a56.32,56.32,0,0,0-11.85-1.59A.25.25,0,0,1,375.46,379.94Z" style="fill:#263238"></path><path d="M372.71,381.88c3.92-1,8.82-.77,12.06,1.84.13.1,0,.28-.15.25a56.32,56.32,0,0,0-11.85-1.59A.25.25,0,0,1,372.71,381.88Z" style="fill:#263238"></path><path d="M417.45,375.32c4.42-1.07,6.1,5.78,1.68,6.86S413,376.4,417.45,375.32Z" style="fill:#263238"></path><path d="M375.84,372.32c2.79,2.21,6.45,3.14,9.73,4.38a.49.49,0,0,0,.63-.49.11.11,0,0,0,.1-.14,21.25,21.25,0,0,0-6.06-9.17c-1.65-1.41-4.56-2.41-6.14-.26S374.2,371,375.84,372.32Zm-1-3.21c-.67-4.38,4-2,5.18-1a24,24,0,0,1,2.09,2.3,63.65,63.65,0,0,1,3.66,5.28c-1.58-.71-3.2-1.28-4.79-1.93C379.08,373,375.22,371.52,374.85,369.11Z" style="fill:#263238"></path><path d="M399.64,370.11c-.95-2.49-4-2.33-6-1.42a21.28,21.28,0,0,0-8.32,7.19.1.1,0,0,0,.05.16.5.5,0,0,0,.48.65c3.49-.31,7.26-.21,10.55-1.58C398.35,374.31,400.53,372.46,399.64,370.11Zm-8.58,5c-1.71.19-3.42.3-5.13.56a62.45,62.45,0,0,1,4.95-4.09,22.44,22.44,0,0,1,2.64-1.65c1.42-.73,6.55-1.71,4.72,2.32C397.24,374.5,393.11,374.9,391.06,375.14Z" style="fill:#263238"></path><path d="M374.62,364l40.65-12.42s-33.92-69.76-32.88-73.32c.7-2.38,51-2.8,65.68-16.12,15.2-13.78,3.17-40.64,3.17-40.64h-42.3s.77,8.83-.83,10.21c-1.07.92-58.87,6.31-69.84,27.63C328.32,278.64,374.62,364,374.62,364Z" style="fill:#455a64"></path><path d="M382.39,278.21c-.18.6.65,3.11,2.16,6.86l-30.21,37.51c-11-24.66-21.31-53.11-16.07-63.29,11-21.32,68.77-26.71,69.84-27.63,1.6-1.38.83-10.21.83-10.21h26.85l-44.34,55C386.08,277.11,382.57,277.59,382.39,278.21Z" style="fill:#263238"></path><path d="M373.57,355.34a27.45,27.45,0,0,1,3.31-1.25c1.17-.4,2.34-.81,3.52-1.2q3.48-1.14,7-2.16c4.72-1.36,9.45-2.7,14.21-3.93,2.48-.64,7.79-2.05,8.12-2,.16,0,.2.29,0,.34-4.59,1.67-9.25,3.11-13.92,4.56s-9.32,2.87-14,4.09c-1.31.34-2.63.64-3.94,1a29.67,29.67,0,0,1-4.18.92C373.55,355.68,373.42,355.42,373.57,355.34Z" style="fill:#263238"></path><path d="M449,229.52c-.13-1.41-.3-2.82-.47-4.23,0-.16-.27-.16-.26,0,.6,5.72,1.21,11.57.18,17.28A24.57,24.57,0,0,1,441,256.3c-8.35,7.87-20.07,10.24-31,12.16q-9.39,1.64-18.87,2.6c-3.09.32-6.2.58-9.3.79s-6.16.25-9.24.44c-1,.06-1.83.51-1.67,1.62a7.76,7.76,0,0,0,.74,1.94c.34.74.67,1.49,1,2.24q1.88,4.17,3.77,8.35,3.9,8.6,7.92,17.14,8,17,16.53,33.65l2.13,4.14c.05.09.18,0,.14-.08Q395,324.39,387,307.4q-4-8.44-7.89-16.89-2-4.22-3.89-8.46c-.65-1.41-1.29-2.83-1.93-4.24l-1-2.12c-.27-.59-1.23-2-.58-2.55.44-.37,1.36-.25,1.89-.27l2.45-.09c1.56-.06,3.11-.13,4.66-.22q4.72-.26,9.43-.69c6.15-.57,12.27-1.38,18.36-2.39,10.86-1.8,22.66-3.84,31.32-11.18a26.12,26.12,0,0,0,8.28-12.2C449.74,240.74,449.55,235,449,229.52Z" style="fill:#263238"></path><path d="M261.77,348.43c1.54,1.52,55.78,27.83,58.41,27.52.31,0,2.79-4.87,6.08-11.57l.07-.14c2.1-4.23,21.16-39.88,21.16-39.88l-33.75-16.87-19.6,34.7s-8.81-.53-16.66-.62h0a83.13,83.13,0,0,0-10.17.2C264.45,342.42,260.22,346.92,261.77,348.43Z" style="fill:#f7a9a0"></path><path d="M261.77,348.42c1.54,1.53,55.78,27.84,58.42,27.53.3,0,2.78-4.88,6.07-11.57l.07-.13c.14-.3.29-.6.45-.89s.22-.44.33-.65.33-.64.5-1c1.46-2.78,3.84-7.29,6.46-12.23L299.66,332.4l-5.53,9.79s-8.8-.53-16.65-.62h0a85.07,85.07,0,0,0-10.16.2C264.45,342.42,260.22,346.92,261.77,348.42Z" style="fill:#fff"></path><path d="M261.44,348.52c1.6,1.55,56,27.76,58.68,27.45,1-.11,5.88-8.11,9.6-17.74l-35.07-16.85s-24.64-.39-27.57.27S259.85,347,261.44,348.52Z" style="fill:#FFB30E"></path><path d="M263.27,346.72c9.22,4.17,46,21.86,54.83,26.68.07,0,0,.09,0,.06-9.23-3.94-45.89-21.92-54.87-26.59C263,346.77,263.08,346.63,263.27,346.72Z" style="fill:#263238"></path><path d="M271.52,341.38a8.13,8.13,0,0,1,4.38,4.86,7.81,7.81,0,0,1-.31,5.84c0,.06-.12,0-.11-.05a9.38,9.38,0,0,0-4-10.53C271.4,341.46,271.45,341.35,271.52,341.38Z" style="fill:#263238"></path><path d="M291.35,340.92c3.67,1.7,7.28,5,8.11,9.11,0,.16-.19.2-.28.09a55.3,55.3,0,0,0-8.11-8.78A.25.25,0,0,1,291.35,340.92Z" style="fill:#263238"></path><path d="M288,340.66c3.67,1.71,7.28,5,8.11,9.11,0,.16-.19.2-.27.09a55.36,55.36,0,0,0-8.12-8.78A.26.26,0,0,1,288,340.66Z" style="fill:#263238"></path><path d="M284.66,340.4c3.67,1.71,7.28,5,8.11,9.11,0,.16-.2.2-.28.09a55.77,55.77,0,0,0-8.11-8.78A.26.26,0,0,1,284.66,340.4Z" style="fill:#263238"></path><path d="M281.31,340.14c3.67,1.71,7.28,5,8.11,9.11,0,.16-.19.2-.27.09a55.83,55.83,0,0,0-8.12-8.78A.26.26,0,0,1,281.31,340.14Z" style="fill:#263238"></path><path d="M320,363.62c4.09,2,1,8.34-3.08,6.36S315.86,361.64,320,363.62Z" style="fill:#263238"></path><path d="M289.81,334.77c.74,3.49,3,6.53,4.71,9.58a.48.48,0,0,0,.79,0,.11.11,0,0,0,.17-.05,21.28,21.28,0,0,0,1.18-10.92c-.37-2.14-2-4.76-4.56-4.12S289.38,332.73,289.81,334.77Zm1.29-3.1c2.27-3.8,4.39,1,4.6,2.56a23.05,23.05,0,0,1,.14,3.11,62.11,62.11,0,0,1-.55,6.39c-.75-1.55-1.64-3-2.45-4.54C291.86,337.38,289.84,333.76,291.1,331.67Z" style="fill:#263238"></path><path d="M309.56,348.24c.86-2.52-1.61-4.34-3.71-4.9a21.33,21.33,0,0,0-11,.23.11.11,0,0,0-.06.16.5.5,0,0,0-.05.8c2.89,2,5.73,4.47,9.14,5.52C305.88,350.65,308.74,350.62,309.56,348.24Zm-9.82-1.59c-1.44-.94-2.83-1.95-4.31-2.84,2.15,0,4.28-.17,6.42,0a22.59,22.59,0,0,1,3.08.42c1.57.34,6.14,2.86,2.16,4.8C304.9,350.1,301.47,347.77,299.74,346.65Z" style="fill:#263238"></path><path d="M300.77,327.56l40.69,20.07s31.35-64.57,34.81-68.74c4.6-5.56,65,1.94,79.14-16,14.63-18.55,1.89-41.44,1.89-41.44l-45.94.21a38.24,38.24,0,0,0,2.58,12.53s-52.55-2.85-67.34,11.67C335.25,257,300.77,327.56,300.77,327.56Z" style="fill:#455a64"></path><path d="M409.46,232.15a30.87,30.87,0,0,1,5.55,2.21,79.27,79.27,0,0,1,7.33,4.43c.07.05,0,.15-.08.11-2.51-1.4-5.11-2.66-7.71-3.88l-5.76-2.69C407.53,231.74,408.12,231.83,409.46,232.15Z" style="fill:#263238"></path><path d="M410.27,220c.48,2.16.89,4.34,1.44,6.49.26,1,.51,2,.85,2.95s.73,1.73,1.66,1.94,1.39-.67,1.33-1.55-.3-2-.46-3-.39-2.24-.56-3.37c-.09-.56-.18-1.12-.25-1.69,0-.14-.1-1.22-.17-1.53,0,0,0,.05-.06.05h0a.07.07,0,0,1-.07-.06c0-.08,0-.1.06-.15a.08.08,0,0,1,.1,0c.2.12.21.4.27.61.15.55.32,1.09.46,1.65.27,1,.53,2.07.76,3.11s.45,2.09.68,3.13a4.89,4.89,0,0,1,.14,2.4,1.81,1.81,0,0,1-1.73,1.32,2.26,2.26,0,0,1,.11.22c.09.21.15.44.22.66a5.31,5.31,0,0,1,.2.68,1.91,1.91,0,0,1,.06.33c0,.13,0,.25,0,.37a.18.18,0,0,1-.34.11,3,3,0,0,0-.19-.3,2.79,2.79,0,0,1-.14-.37c-.07-.22-.12-.43-.17-.65s-.11-.44-.15-.66a2.75,2.75,0,0,1,0-.4,2.48,2.48,0,0,1-1.23-.51,4.13,4.13,0,0,1-1.23-2c-.3-.9-.52-1.84-.75-2.76a40.11,40.11,0,0,1-1.17-7A.2.2,0,0,1,410.27,220Z" style="fill:#263238"></path><path d="M432.45,226c.16,1.08.26,2.16.47,3.22a31.93,31.93,0,0,0,.78,3.1,10.86,10.86,0,0,0,1.23,2.81,10.29,10.29,0,0,0,2,2.19,17.71,17.71,0,0,0,5,3,22,22,0,0,0,2.78.9,15.15,15.15,0,0,0,1.49.31,3.09,3.09,0,0,1,1.2.31.24.24,0,0,1,0,.42,4.32,4.32,0,0,1-2.23,0,17.18,17.18,0,0,1-2.37-.49,17.45,17.45,0,0,1-4.46-2,14,14,0,0,1-3.68-3.19,10.76,10.76,0,0,1-1.89-4.47,21.8,21.8,0,0,1-.49-6A.11.11,0,0,1,432.45,226Z" style="fill:#263238"></path><path d="M309,320.13a26,26,0,0,1,3.27,1.37l3.38,1.54c2.21,1,4.4,2.11,6.57,3.23,4.37,2.25,8.72,4.53,13,6.9,2.24,1.23,7.07,3.86,7.27,4.12s-.05.34-.19.29c-4.49-1.94-8.86-4.1-13.25-6.25s-8.75-4.31-13-6.67c-1.19-.65-2.35-1.34-3.52-2a29,29,0,0,1-3.67-2.21C308.73,320.37,308.81,320.09,309,320.13Z" style="fill:#263238"></path><path d="M457.33,232.13a.16.16,0,0,0-.31,0c.14,10-1.34,21.14-9,28.33-8.38,7.89-20.52,8.89-31.45,8.86-6.28,0-12.54-.15-18.81.08s-12.67.58-18.92,1.41a10.26,10.26,0,0,0-6.41,3.1,32.92,32.92,0,0,0-4.23,6.15q-4.7,7.86-9.09,15.9-8.73,16-16.15,32.62c-.62,1.38-1.22,2.76-1.83,4.14,0,.09.1.17.14.08q7.54-16.69,16.24-32.83,4.34-8.07,9-16c1.45-2.48,2.85-5,4.47-7.39,1.43-2.09,3.23-4.06,5.73-4.83a22.92,22.92,0,0,1,4.67-.71c1.6-.15,3.2-.29,4.81-.42q4.68-.36,9.39-.56c6.32-.26,12.63-.22,19-.14,11,.15,23-.29,32.05-7.33a26,26,0,0,0,8.4-11.86,46.65,46.65,0,0,0,2.37-14.87C457.37,234.65,457.36,233.39,457.33,232.13Z" style="fill:#263238"></path><path d="M404.22,210.3l2.35,21.21s48.57,2.21,58.67,1.65c0,0-24.25-56.83-40.45-66.65-8.1-4.92-15.2-2.32-18.46,3.69-.83,1.53-9.18,20.39-8.61,27.85C398.23,204.63,404.22,210.3,404.22,210.3Z" style="fill:#FFB30E"></path><path d="M402.47,147.16c.31,3.35-1.81,6.29-4.75,6.57s-5.57-2.22-5.89-5.56,1.81-6.29,4.75-6.57S402.15,143.82,402.47,147.16Z" style="fill:#FFB30E"></path><path d="M404.21,147.21c.35,3.73-2,7-5.28,7.3s-6.2-2.46-6.55-6.18,2-7,5.28-7.3S403.86,143.49,404.21,147.21Z" style="fill:#c7c7c7"></path><path d="M418.7,168.43c-.23.94-4.75,7.07-9.07,6.86-1.41-.07-1.36-7.77-1.36-7.77l-.13-.57-1.76-8,9.37-6,1.35-.8s.34,2.22.73,5l.06.4c0,.15.05.3.07.44.06.41.13.83.18,1.25s.09.63.12,1l.12,1A52.36,52.36,0,0,1,418.7,168.43Z" style="fill:#f7a9a0"></path><path d="M417.83,157.18a16.34,16.34,0,0,1-9.69,9.77l-1.76-8,9.37-6,1.35-.8S417.44,154.43,417.83,157.18Z" style="fill:#263238"></path><path d="M405.57,130.07c-.24,0-8.57,2-10.67,7.47s0,12.65,0,12.65Z" style="fill:#263238"></path><path d="M394.54,147.17c-.56,14.3,7.95,16.25,11,16.37,2.8.11,12.34.11,14.38-14.06s-4.45-19-10.84-19.54S395.1,132.86,394.54,147.17Z" style="fill:#f7a9a0"></path><path d="M396.81,143.3c.33,0,.64-.11,1-.17a1.56,1.56,0,0,0,1-.36.5.5,0,0,0,0-.62,1.23,1.23,0,0,0-1.23-.34,1.79,1.79,0,0,0-1.19.61A.54.54,0,0,0,396.81,143.3Z" style="fill:#263238"></path><path d="M406.2,143.72a8.42,8.42,0,0,1-1-.24,1.67,1.67,0,0,1-.93-.43.5.5,0,0,1,0-.62,1.23,1.23,0,0,1,1.25-.25,1.85,1.85,0,0,1,1.14.7A.54.54,0,0,1,406.2,143.72Z" style="fill:#263238"></path><path d="M404.15,147.26s.08.05.07.09c-.09,1,0,2.1.83,2.47,0,0,0,.07,0,.06C404,149.66,403.91,148.16,404.15,147.26Z" style="fill:#263238"></path><path d="M405.08,146.3c1.58,0,1.5,3.12.05,3.14S403.77,146.31,405.08,146.3Z" style="fill:#263238"></path><path d="M405.7,146.48c.27.18.53.5.86.54s.68-.27.94-.58c0,0,.05,0,.05,0,0,.61-.25,1.22-.9,1.29s-1-.47-1.14-1.08C405.49,146.57,405.59,146.4,405.7,146.48Z" style="fill:#263238"></path><path d="M398.55,146.94s-.07,0-.07.08c0,1-.14,2.1-1,2.41,0,0,0,0,0,0C398.54,149.35,398.72,147.86,398.55,146.94Z" style="fill:#263238"></path><path d="M397.7,145.9c-1.57-.14-1.74,3-.29,3.14S399,146,397.7,145.9Z" style="fill:#263238"></path><path d="M397,146.08c-.26.15-.52.44-.82.44s-.58-.35-.78-.69c0,0,0,0-.05,0-.05.6.12,1.24.69,1.39s.93-.36,1.11-.95C397.21,146.19,397.14,146,397,146.08Z" style="fill:#263238"></path><path d="M404.05,155c-.23.23-.45.55-.81.59a2.71,2.71,0,0,1-1.05-.22s-.06,0,0,.05a1.31,1.31,0,0,0,1.25.5,1,1,0,0,0,.75-.88C404.16,155,404.08,155,404.05,155Z" style="fill:#263238"></path><path d="M400.1,151.35s-.25,1.45-.27,2.14c0,.06.16.1.39.12h0a3.26,3.26,0,0,0,3.21-1.11c.05-.06,0-.13-.1-.09a4.93,4.93,0,0,1-3,.74c0-.19.52-2.46.41-2.47a6,6,0,0,0-1.57.29c.44-3,1.36-6,1.75-9a.1.1,0,0,0-.18,0,50.35,50.35,0,0,0-2.3,9.61C398.39,151.92,399.82,151.46,400.1,151.35Z" style="fill:#263238"></path><path d="M400.25,153.14a4,4,0,0,0,1.4,1.45,1.76,1.76,0,0,0,1.07.22c.8-.09.93-.8.87-1.43a4.25,4.25,0,0,0-.21-1A5.15,5.15,0,0,1,400.25,153.14Z" style="fill:#263238"></path><path d="M401.65,154.59a1.76,1.76,0,0,0,1.07.22c.8-.09.93-.8.87-1.43A1.86,1.86,0,0,0,401.65,154.59Z" style="fill:#ff9abb"></path><path d="M398.86,132.89a8.94,8.94,0,0,0,9.21,9.23,18.5,18.5,0,0,1-2.77-2.92,21.7,21.7,0,0,0,9.31,5.66s2.57,5.33,4.85,5.33,3.5-12.65-1.29-15.78c0,0-3.64-5.3-12.6-4.34A10.92,10.92,0,0,0,398.86,132.89Z" style="fill:#263238"></path><path d="M417.64,150.49s2.91-4.62,5-3.6,0,7.6-2.3,8.6a2.42,2.42,0,0,1-3.3-1.15Z" style="fill:#f7a9a0"></path><path d="M422,148.76s0,.05,0,.07a6.13,6.13,0,0,0-3,4,1.34,1.34,0,0,1,2-.46c.05,0,0,.1,0,.09a1.49,1.49,0,0,0-1.61.6,6.8,6.8,0,0,0-.72,1.36c-.07.15-.34.09-.3-.09l0,0C418.21,152.14,419.72,149.09,422,148.76Z" style="fill:#263238"></path><path d="M420.42,144.93s-.27-7.35-2.83-11.15c-2.85-4.24-12.7-6.23-18.94-.7,0,0,10.32-4.36,16.08,1.32,2.43,2.4,3.27,11,3.27,11Z" style="fill:#c7c7c7"></path><path d="M414,149.34c.35,3.72,3.28,6.49,6.55,6.18s5.63-3.57,5.28-7.3-3.29-6.49-6.55-6.18S413.62,145.61,414,149.34Z" style="fill:#c7c7c7"></path><path d="M415.67,149c.31,3.35,2.95,5.84,5.89,5.56s5.06-3.21,4.74-6.56-2.95-5.83-5.88-5.56S415.35,145.62,415.67,149Z" style="fill:#FFB30E"></path><path d="M429.11,170.86c18.14,18.88,44.58,66.68,47.85,73.54,2.22,4.65-22.11,16.92-23.14,13.54-1.32-4.34-22.52-57.84-28.14-78C422.57,168.78,425.37,167,429.11,170.86Z" style="fill:#f7a9a0"></path><path d="M452.67,254.74c.85,2.31,3.74,12.16,5.76,13.39s12.62,1,18,1,6.39-1.49,6.3-3.33-11.3-2.19-11.3-2.19,15,4.29,18.75,5,12.44,2.9,13.7-.23c.56-1.41-1.81-2.83-1.81-2.83s3.64,1.06,4.22-.75c.66-2.06-2.24-3.19-2.24-3.19s2.28.45,2.33-1.23c.12-3.75-14.12-5.59-14.12-5.59s10.9,5.31,11.25,2.25c.49-4.24-21.86-8.89-24.19-10.74a15.84,15.84,0,0,1-3.73-4.6Z" style="fill:#f7a9a0"></path><path d="M482.63,266.69a1.67,1.67,0,0,0-.51-1.43,4.81,4.81,0,0,0-1.31-.84,17.39,17.39,0,0,0-3.06-1c-2.1-.53-4.26-.91-6.41-1.46a25.81,25.81,0,0,1,6.6.74,12.32,12.32,0,0,1,3.15,1.2A4.42,4.42,0,0,1,482.4,265,1.73,1.73,0,0,1,482.63,266.69Z" style="fill:#263238"></path><path d="M502,265.5c-1.54-.38-3.06-.81-4.58-1.25s-3-.9-4.53-1.36l-4.51-1.41c-1.51-.48-3-.94-4.53-1.39a33.72,33.72,0,0,1,4.68.83c1.55.35,3.07.8,4.58,1.25s3,1,4.49,1.53S500.6,264.83,502,265.5Z" style="fill:#263238"></path><path d="M487.51,256.34a31.61,31.61,0,0,1,4.32.6,41.67,41.67,0,0,1,4.23,1.09,38,38,0,0,1,4.09,1.53,30.15,30.15,0,0,1,3.87,2c-1.37-.48-2.72-1-4.08-1.47s-2.73-.92-4.11-1.34-2.75-.84-4.14-1.25S488.91,256.73,487.51,256.34Z" style="fill:#263238"></path><path d="M489.71,252.77a27,27,0,0,1,6.88,1.45,26.4,26.4,0,0,1,6.32,3.07c-2.21-.79-4.36-1.63-6.56-2.36S492,253.49,489.71,252.77Z" style="fill:#263238"></path><path d="M425.9,185.14c4.31,18.51,24.87,69.12,24.87,69.12l18.48-8.91,9.32-4.5s-31.73-49.57-44.71-65.79c-1-1.25-1.91-2.32-2.75-3.21C423.07,163.25,422.58,170.87,425.9,185.14Z" style="fill:#a6a6a6"></path><path d="M468.59,236.32a7.55,7.55,0,0,1-.44-2,7.45,7.45,0,0,1,.09-2.05,7.92,7.92,0,0,1,.35,4.06Z" style="fill:#fff"></path><path d="M428.27,173.73a7.47,7.47,0,0,1-.44-2,7.08,7.08,0,0,1,.09-2.05,7.47,7.47,0,0,1,.44,2A7.89,7.89,0,0,1,428.27,173.73Z" style="fill:#fff"></path><path d="M454.37,227.09a7.47,7.47,0,0,1,2-.44,7.08,7.08,0,0,1,2.05.09,7.47,7.47,0,0,1-2,.44A7.89,7.89,0,0,1,454.37,227.09Z" style="fill:#fff"></path><path d="M442.24,202a7.94,7.94,0,0,1,4.06-.35,7.09,7.09,0,0,1-2,.43A7.47,7.47,0,0,1,442.24,202Z" style="fill:#fff"></path><path d="M458.92,215.56a7.41,7.41,0,0,1-1.73-1.11,7.7,7.7,0,0,1-1.39-1.51,7.1,7.1,0,0,1,1.73,1.11A7.18,7.18,0,0,1,458.92,215.56Z" style="fill:#fff"></path><path d="M436.08,185.44a7.41,7.41,0,0,1-1.73-1.11,7.49,7.49,0,0,1-1.39-1.52,7.41,7.41,0,0,1,1.73,1.11A7.49,7.49,0,0,1,436.08,185.44Z" style="fill:#fff"></path><path d="M446.6,237.32a8,8,0,0,1-3.12-2.62,7.41,7.41,0,0,1,1.73,1.11A7.7,7.7,0,0,1,446.6,237.32Z" style="fill:#fff"></path><path d="M445.48,215.91a7.41,7.41,0,0,1-1.11,1.73,7.49,7.49,0,0,1-1.52,1.39A7,7,0,0,1,444,217.3,7.43,7.43,0,0,1,445.48,215.91Z" style="fill:#fff"></path><path d="M460.54,243.13a7.74,7.74,0,0,1-1.11,1.73,7.49,7.49,0,0,1-1.52,1.39,7.41,7.41,0,0,1,1.11-1.73A7.49,7.49,0,0,1,460.54,243.13Z" style="fill:#fff"></path><path d="M435.26,192.75a7.41,7.41,0,0,1-1.11,1.73,7.7,7.7,0,0,1-1.51,1.39,8,8,0,0,1,2.62-3.12Z" style="fill:#fff"></path><path d="M449.23,248.74c10.88-6.31,23.26-11.29,25.36-12.31.1-.05.16.11.06.16-2.11.89-15.65,8.12-25.35,12.33C449.19,249,449.13,248.8,449.23,248.74Z" style="fill:#263238"></path></g><g id="freepik--character-3--inject-23"><path d="M497,420.54c2.06.68,60.81.51,63-.91.85-.53,1.32-9.1,1.6-19.46.07-2.23.11-4.54.15-6.89,0-2.78.08-5.59.1-8.32.07-12.28-.1-23.08-.1-23.08H523.53v31.4l.2,6.89s-22.46,10.14-24.75,12S494.93,419.86,497,420.54Z" style="fill:#dd6a57"></path><path d="M497,420.54c2.06.68,60.81.51,63-.91.85-.53,1.32-9.1,1.6-19.46.07-2.23.11-4.54.15-6.89,0-2.78.08-5.59.1-8.32H523.54v8.32l.2,6.89s-22.46,10.14-24.75,12S494.93,419.86,497,420.54Z" style="fill:#fff"></path><path d="M496.8,420.62c1.34.44,26.37.53,44.59.16,4.22-.09,8.07-.21,11.18-.34,4.29-.2,7.17-.44,7.64-.73,1-.67,1.52-13.24,1.76-26.49H523.53l.2,6.93s-22.59,10.18-24.9,12S494.74,419.93,496.8,420.62Z" style="fill:#FFB30E"></path><path d="M497.64,418.26c9.91-.27,49.88-.43,59.69.05.08,0,.08.06,0,.06-9.81.48-49.78.32-59.69.05C497.44,418.42,497.43,418.26,497.64,418.26Z" style="fill:#263238"></path><path d="M522.32,398c3.9-.74,8.66-.15,11.65,2.62.12.1,0,.27-.16.23a54.74,54.74,0,0,0-11.47-2.36A.25.25,0,0,1,522.32,398Z" style="fill:#263238"></path><path d="M519.51,399.65c3.9-.73,8.67-.15,11.65,2.62.12.11,0,.27-.16.23a54.59,54.59,0,0,0-11.47-2.35A.25.25,0,0,1,519.51,399.65Z" style="fill:#263238"></path><path d="M516.7,401.36c3.9-.74,8.67-.16,11.65,2.61.12.11,0,.27-.16.23a54.59,54.59,0,0,0-11.47-2.35A.25.25,0,0,1,516.7,401.36Z" style="fill:#263238"></path><path d="M513.9,403.06c3.89-.74,8.66-.15,11.65,2.62.11.1,0,.27-.17.23a55.25,55.25,0,0,0-11.47-2.36A.25.25,0,0,1,513.9,403.06Z" style="fill:#263238"></path><path d="M516.86,394.5c2.76,2.14,6.35,3,9.57,4.19a.48.48,0,0,0,.61-.49.11.11,0,0,0,.1-.14,20.87,20.87,0,0,0-6-8.91c-1.63-1.36-4.49-2.3-6-.19S515.25,393.26,516.86,394.5Zm-1-3.13c-.7-4.27,3.9-2,5.06-1a23,23,0,0,1,2.07,2.23c1.36,1.61,2.45,3.39,3.64,5.12-1.55-.67-3.14-1.21-4.71-1.83C520.05,395.16,516.24,393.73,515.86,391.37Z" style="fill:#263238"></path><path d="M540.13,392.08c-1-2.43-4-2.23-5.87-1.32a20.85,20.85,0,0,0-8.06,7.13.1.1,0,0,0,0,.16c-.06.29.12.66.47.62,3.42-.34,7.11-.28,10.32-1.66C538.91,396.21,541,394.38,540.13,392.08Zm-8.34,5c-1.67.21-3.35.33-5,.6a62.36,62.36,0,0,1,4.8-4.06,21.32,21.32,0,0,1,2.56-1.63c1.39-.73,6.39-1.75,4.65,2.22C537.83,396.41,533.79,396.85,531.79,397.1Z" style="fill:#263238"></path><path d="M574.54,198.87S564.2,301.12,564,302.42c0,.17-.1,2.13-.2,5.34-.56,17.61-1.94,72.49-1.94,72.49H519.64s2.75-65,4.33-80.17c2-19.35,14.71-101.21,14.71-101.21Z" style="fill:#37474f"></path><path d="M558.92,306q2-33.22,5.87-66.31c1.48-12.42,3.26-24.8,5-37.18,0-.11.18-.11.17,0-3.27,22-5.58,44.26-7.57,66.44s-3.38,44.37-4.29,66.61c-.51,12.59-.9,25.19-1.31,37.8a.23.23,0,0,1-.46,0C557,350.91,557.61,328.45,558.92,306Z" style="fill:#263238"></path><path d="M522.3,373.45c1.1-.15,2.3-.1,3.42-.14s2.54-.05,3.8-.1q3.68-.13,7.33-.2,7.39-.12,14.78.11l4.07.14c1.44.06,2.89.19,4.33.18.11,0,.11.13,0,.13-2.48,0-5,.21-7.47.3s-4.89.14-7.33.17c-4.92.07-9.86,0-14.78-.16-1.35-.05-2.71-.06-4.06-.11-.73,0-1.45-.06-2.17-.09s-1.29,0-1.93-.06A.09.09,0,0,1,522.3,373.45Z" style="fill:#263238"></path><path d="M574.54,198.87S564.2,301.12,564,302.42c0,.17-.1,2.13-.2,5.34L543.86,198.87Z" style="fill:#263238"></path><path d="M573.68,433.45c2.15.32,60-9.91,62-11.7.75-.67-.25-9.18-1.75-19.43-.32-2.22-.56-4.52-1-6.82-.58-2.89-1.2-5.77-1.83-8.54-2.72-12-5.47-22.06-5.47-22.06l-36.62,6.36,4.45,21.83,1.82,9,1.37,6.76s-20.4,13.83-22.34,16S571.54,433.13,573.68,433.45Z" style="fill:#dd6a57"></path><path d="M573.68,433.45c2.15.32,60-9.91,62-11.7.75-.67-.25-9.18-1.75-19.43-.32-2.22-.56-4.52-1-6.82-.58-2.89-1.2-5.77-1.83-8.54-11.3,1.9-27.54,4.52-37.64,6.13l1.82,9,1.37,6.76s-20.4,13.83-22.34,16S571.54,433.13,573.68,433.45Z" style="fill:#fff"></path><path d="M573.52,433.56c2.15.32,60.33-10,62.31-11.76.91-.82-.76-13.29-2.8-26.4L595.16,402l1.38,6.8s-20.52,13.9-22.47,16.1S571.37,433.24,573.52,433.56Z" style="fill:#FFB30E"></path><path d="M573.94,431.08c9.71-2,49.07-9,58.81-10.16.08,0,.09,0,0,.06-9.58,2.15-49,8.84-58.79,10.26C573.76,431.27,573.74,431.12,573.94,431.08Z" style="fill:#263238"></path><path d="M594.78,406.85c3.71-1.39,8.51-1.63,11.92.58.14.09,0,.28-.12.26a54.5,54.5,0,0,0-11.7-.36A.25.25,0,0,1,594.78,406.85Z" style="fill:#263238"></path><path d="M592.3,409c3.72-1.39,8.51-1.63,11.93.58.13.09,0,.27-.12.26a54.57,54.57,0,0,0-11.71-.36A.25.25,0,0,1,592.3,409Z" style="fill:#263238"></path><path d="M589.83,411.17c3.71-1.39,8.51-1.64,11.92.58.14.09,0,.27-.12.26a54.5,54.5,0,0,0-11.7-.36A.25.25,0,0,1,589.83,411.17Z" style="fill:#263238"></path><path d="M587.35,413.33c3.71-1.4,8.51-1.64,11.93.58.13.09,0,.27-.12.26a54.57,54.57,0,0,0-11.71-.36A.25.25,0,0,1,587.35,413.33Z" style="fill:#263238"></path><path d="M588.81,404.39c3.09,1.63,6.77,1.87,10.15,2.48.35.07.56-.29.52-.58a.11.11,0,0,0,.06-.16,20.75,20.75,0,0,0-7.46-7.74c-1.84-1.07-4.82-1.51-6,.84S587,403.44,588.81,404.39Zm-1.52-2.91c-1.42-4.1,3.49-2.68,4.81-1.85a21.72,21.72,0,0,1,2.42,1.84A60.14,60.14,0,0,1,599,405.9c-1.64-.4-3.3-.66-5-1C592.06,404.49,588.07,403.73,587.29,401.48Z" style="fill:#263238"></path><path d="M611.32,398c-1.35-2.23-4.27-1.52-6-.29a20.8,20.8,0,0,0-6.72,8.4.1.1,0,0,0,.08.14c0,.3.23.63.57.54,3.31-.92,7-1.5,9.88-3.4C610.83,402.29,612.6,400.13,611.32,398ZM604,404.39c-1.62.49-3.25.9-4.84,1.45,1.31-1.63,2.55-3.31,4-4.82a24.19,24.19,0,0,1,2.24-2c1.25-1,6-2.81,5,1.39C609.8,402.68,605.89,403.8,604,404.39Z" style="fill:#263238"></path><path d="M538.16,198.31s1.84,11,7.82,18.48c1.43,1.8,5.82,3.47,8.09,5.12,0,0,12.13,78,14.72,86.79,2.87,9.81,22.47,80.07,22.47,80.07l43.49-7.45s-19-67-24.2-81c-1.29-3.47-13.79-72.25-13.58-73.83,2.53-18.9-6.48-30.64-6.48-30.64Z" style="fill:#37474f"></path><path d="M572.82,200a14.17,14.17,0,0,0,5.17,7.41,17.48,17.48,0,0,0,9.37,3.21c.57.05.61.9,0,.91-6.88,0-13.83-4.36-14.84-11.49C572.52,199.9,572.78,199.86,572.82,200Z" style="fill:#263238"></path><path d="M545.16,216.48a37.74,37.74,0,0,1,7.1,3.77c2.37,1.46,4.55,3.17,6.83,4.75a.09.09,0,0,1-.09.15c-2.39-1.38-4.88-2.57-7.24-4a44.57,44.57,0,0,1-6.7-4.5C545,216.59,545.06,216.44,545.16,216.48Z" style="fill:#263238"></path><path d="M544.19,202.14c.37,1.57.83,3.13,1.24,4.69s.7,3,1.16,4.42a7.52,7.52,0,0,0,2.24,3.64c.61.51,1.27,1,1.91,1.43.35.25.72.49,1.08.74q-.08-.3-.15-.63l-.39-1.79c-.28-1.33-.56-2.66-.83-4-.52-2.62-1-5.27-1.68-7.85a.08.08,0,1,1,.16-.05c.78,2.55,1.62,5.08,2.31,7.66.34,1.27,1.63,7.54,1.69,8s.13.92.17,1.39a5.56,5.56,0,0,1,.06,1.41.11.11,0,0,1-.21,0h0a5.32,5.32,0,0,1-.46-1.36q-.21-.66-.36-1.35c0-.16-.07-.33-.1-.5-.64-.35-1.24-.82-1.84-1.22s-1.31-.83-1.93-1.31a7.16,7.16,0,0,1-2.43-3.44,26.48,26.48,0,0,1-1-4.5c-.28-1.79-.51-3.59-.84-5.36C544,202.08,544.17,202,544.19,202.14Z" style="fill:#263238"></path><path d="M592.38,381c1.06-.35,2.25-.53,3.34-.78s2.48-.53,3.72-.81c2.38-.55,4.76-1.07,7.16-1.57,4.82-1,9.67-1.9,14.53-2.67l4-.62c1.43-.22,2.88-.36,4.29-.63.11,0,.13.1,0,.12-2.43.46-4.86,1.15-7.28,1.7s-4.77,1-7.16,1.54c-4.82,1-9.68,1.87-14.55,2.62-1.34.2-2.67.44-4,.65-.72.12-1.43.21-2.15.32s-1.26.26-1.9.3A.09.09,0,0,1,592.38,381Z" style="fill:#263238"></path><path d="M557.8,139.59c-1.6,11.83-9.16,35.19-17,41.71-7.18,6-22.6-15.76-26.06-21.1-1.86-2.86,13.23-29.26,15.11-26.14,3.21,5.31,8.45,21.55,9.54,20.7,2.14-1.69,3.73-6.41,7.65-12.33C555.88,129.07,558.54,134.07,557.8,139.59Z" style="fill:#dd6a57"></path><path d="M539.4,151.34,553.21,164s4.88-18.07,5.44-26.43S552.35,130.14,539.4,151.34Z" style="fill:#263238"></path><path d="M539.82,177.53l-3.59,29.6s48.09-.42,60-1.55c0,0-11-54.91-24.2-68.54-6.58-6.82-14.1-6.12-18.79-1.13-1.19,1.26-15.23,20.77-16.59,28.12C535.47,170.52,539.82,177.53,539.82,177.53Z" style="fill:#FFB30E"></path><polygon points="550.21 83.08 565.12 88.65 517.77 224.38 496.93 216.59 550.21 83.08" style="fill:#455a64"></polygon><path d="M511.74,246.52l-19.95,20.86-1-.4,7.75-20.75a3.61,3.61,0,1,0-1.36-.5l-7.76,20.75-1-.4L487,237.26,499,224l2.19-5.86,12.4,4.63-2.19,5.86Z" style="fill:#c7c7c7"></path><rect x="510.31" y="178.47" width="24.7" height="2.1" transform="translate(95.93 -171.62) rotate(20.49)" style="fill:#263238"></rect><rect x="508.57" y="183.12" width="24.7" height="2.1" transform="translate(97.45 -170.72) rotate(20.49)" style="fill:#263238"></rect><path d="M556.72,96.65a2.89,2.89,0,1,1-1.7-3.72A2.89,2.89,0,0,1,556.72,96.65Z" style="fill:#263238"></path><path d="M558.7,97.77c-1,1-8.21-1.14-9.24-7S554.78,81,559.07,86C561.79,89.15,560.87,95.72,558.7,97.77Z" style="fill:#263238"></path><path d="M552.05,84.42a8.28,8.28,0,0,1,5.44-.46,5,5,0,0,1,3.63,3.42,10,10,0,0,1,0,5.37,15.09,15.09,0,0,1-.91,2.65,7.42,7.42,0,0,1-1.51,2.37,6.56,6.56,0,0,0,2-2.13A11.76,11.76,0,0,0,561.91,93a9.72,9.72,0,0,0,.22-5.92,5.83,5.83,0,0,0-1.68-2.6,5.94,5.94,0,0,0-2.78-1.3A7.3,7.3,0,0,0,552.05,84.42Z" style="fill:#263238"></path><path d="M564.19,136.16c-.4.89-6,6-10.21,5-1.36-.33.14-7.88.14-7.88v-.58l-.22-8.16,10.33-4.09,1.48-.52s-.09,2.23-.23,5c0,.13,0,.25,0,.39s0,.31,0,.46c0,.41,0,.84-.06,1.26s0,.63-.07,1,0,.67-.07,1A53.4,53.4,0,0,1,564.19,136.16Z" style="fill:#dd6a57"></path><path d="M565.47,125a16.37,16.37,0,0,1-11.36,7.75l-.22-8.16,10.33-4.09,1.48-.52S565.61,122.17,565.47,125Z" style="fill:#263238"></path><path d="M544.34,112c-2,14.17,6.21,17,9.27,17.43,2.77.4,12.27,1.4,15.77-12.48s-2.44-19.31-8.74-20.56S546.39,97.78,544.34,112Z" style="fill:#dd6a57"></path><path d="M549.29,108.85c.34,0,.65,0,1-.06a1.57,1.57,0,0,0,1-.26.5.5,0,0,0,.09-.61,1.24,1.24,0,0,0-1.19-.47,1.8,1.8,0,0,0-1.25.48A.54.54,0,0,0,549.29,108.85Z" style="fill:#263238"></path><path d="M558.61,110.3a7.83,7.83,0,0,1-.92-.34,1.52,1.52,0,0,1-.88-.53.49.49,0,0,1,.09-.61,1.23,1.23,0,0,1,1.27-.11,1.83,1.83,0,0,1,1.06.81A.54.54,0,0,1,558.61,110.3Z" style="fill:#263238"></path><path d="M556.21,113.6s.07.06.06.1c-.2,1-.26,2.08.56,2.55a0,0,0,0,1,0,0C555.78,116,555.87,114.48,556.21,113.6Z" style="fill:#263238"></path><path d="M557.24,112.75c1.56.14,1.16,3.26-.29,3.13S555.92,112.62,557.24,112.75Z" style="fill:#263238"></path><path d="M557.83,113c.25.21.47.56.8.63s.7-.2,1-.48c0,0,.06,0,0,0-.07.6-.38,1.18-1,1.19s-.95-.58-1-1.2C557.61,113.06,557.73,112.9,557.83,113Z" style="fill:#263238"></path><path d="M550.64,112.65s-.08,0-.08.08c-.09,1-.35,2.07-1.26,2.29,0,0,0,0,0,0C550.38,115.05,550.72,113.59,550.64,112.65Z" style="fill:#263238"></path><path d="M549.9,111.54c-1.54-.31-2,2.8-.61,3.08S551.2,111.8,549.9,111.54Z" style="fill:#263238"></path><path d="M549.22,111.64c-.27.12-.56.38-.86.36s-.54-.41-.7-.77c0,0,0,0-.06,0-.11.59,0,1.24.54,1.44s1-.26,1.2-.83C549.39,111.77,549.33,111.59,549.22,111.64Z" style="fill:#263238"></path><path d="M554.88,121.31c-.25.21-.51.5-.86.5a2.5,2.5,0,0,1-1-.33s-.07,0,0,0a1.32,1.32,0,0,0,1.19.63,1,1,0,0,0,.83-.8S554.92,121.28,554.88,121.31Z" style="fill:#263238"></path><path d="M551.34,117.25s-.4,1.42-.5,2.1c0,.06.15.11.38.16h0a3.25,3.25,0,0,0,3.31-.76c.06-.06,0-.14-.09-.11a4.94,4.94,0,0,1-3.07.43c0-.19.77-2.4.66-2.42a6.46,6.46,0,0,0-1.59.13c.75-3,2-5.79,2.68-8.76A.09.09,0,0,0,553,108a49.91,49.91,0,0,0-3.29,9.32C549.58,117.64,551.05,117.33,551.34,117.25Z" style="fill:#263238"></path><path d="M568.89,116.36c-3.44-.43-2.68-5.85-2.68-5.85s-3.85-.88-3.29-7.21a9.59,9.59,0,0,1-7.77,3.6c-1.14,0,3-2.37,3-2.37s-5,3.45-13.17.78c-.58-.19,1.34-9.75,8.29-11.86s13.14,1.32,16.62,6c0,0,4.5,2.86,4.42,7.47S570.22,116.53,568.89,116.36Z" style="fill:#263238"></path><path d="M567,117.66s3.37-4.28,5.34-3-.76,7.56-3.18,8.31a2.43,2.43,0,0,1-3.17-1.49Z" style="fill:#dd6a57"></path><path d="M571.48,116.4s0,.06,0,.07a6.14,6.14,0,0,0-3.38,3.64,1.34,1.34,0,0,1,2-.25s0,.1,0,.09a1.47,1.47,0,0,0-1.66.42,7.35,7.35,0,0,0-.86,1.28c-.09.14-.35,0-.29-.12l0,0C567.37,119.37,569.19,116.49,571.48,116.4Z" style="fill:#263238"></path><path d="M569.57,101.49c0,1.41,6.55,5.09,11.5,1.71s3.28-10.6-3.3-10.19C573.61,93.27,569.53,98.5,569.57,101.49Z" style="fill:#263238"></path><path d="M583.78,97a8.26,8.26,0,0,0-3.46-4.23,5,5,0,0,0-5-.22,10.17,10.17,0,0,0-3.86,3.74,15.36,15.36,0,0,0-1.25,2.5,7.6,7.6,0,0,0-.66,2.74,6.78,6.78,0,0,1,.16-2.9,12.46,12.46,0,0,1,1-2.74,9.68,9.68,0,0,1,4.1-4.28,5.55,5.55,0,0,1,5.9.48A7.27,7.27,0,0,1,583.78,97Z" style="fill:#263238"></path><path d="M574.72,148.52c5.21,23.57,3.18,41-.49,44.77-4.05,4.16-25.13,14.72-36.83,17-3.08.6-6.27-24-3-24.81,6.29-1.49,23.78-7.73,25.93-10.17,2-2.26,2.65-13.6,5.23-27C568.35,133.79,572.59,138.84,574.72,148.52Z" style="fill:#dd6a57"></path><path d="M504.33,188.23a3.74,3.74,0,0,0,1.34,4.06,5.54,5.54,0,0,0-1.93,3.25c-.33,2.27,3.08,3.77,3.08,3.77a6.86,6.86,0,0,0-1.49,3.75c-.09,2.2,3.14,4.21,3.14,4.21a6,6,0,0,0,.76,4.12c2.12,3.23,8,3.1,11.76,3.05s14.33-3.67,16.41-4.16l-.07-24s-16.85-4.59-21.25-3.91C512.38,182.9,505.27,185.47,504.33,188.23Z" style="fill:#dd6a57"></path><path d="M505.83,191.91c3.8-1.55,7.84-1.9,11.86-2.47.09,0,.11.13,0,.14-4,.52-7.85,1.83-11.83,2.52A.1.1,0,0,1,505.83,191.91Z" style="fill:#263238"></path><path d="M506.9,199a10.28,10.28,0,0,1,2.76-.45c1-.09,2-.17,3-.22q3-.18,5.94-.21c.09,0,.11.14,0,.14-2,.12-3.94.27-5.91.47l-2.94.33a12.49,12.49,0,0,1-2.79.2A.14.14,0,0,1,506.9,199Z" style="fill:#263238"></path><path d="M508.55,207.26a7.48,7.48,0,0,1,2.5-.27c.91,0,1.81-.07,2.71-.12,1.81-.09,3.61-.18,5.41-.33.09,0,.11.13,0,.14-1.83.16-3.66.35-5.49.5l-2.69.2a7,7,0,0,1-2.46,0A0,0,0,0,1,508.55,207.26Z" style="fill:#263238"></path><path d="M562,163.11l18,5.14s-.69-16.59-6.11-26.36C569.82,134.57,563.75,136.65,562,163.11Z" style="fill:#263238"></path><path d="M528.9,130.54c-3.5,2.16-9.73,3.64-11.67,6a3.5,3.5,0,0,0-.37,4.16s-3.37-.37-4.78,2.06c-.73,1.25.62,3.51.62,3.51a4.18,4.18,0,0,0-3.83,2.06c-.9,1.78.59,3.78.59,3.78s-2.67,1-3,3.14c-.67,4.28,13.72,13.55,19.36,9.68,2.63-1.8-1-3.88-1-3.88s6,1.72,7.94-1.19-2.9-5.33-2.9-5.33,5.78,1.61,7.54-1.62S533.9,148,533.9,148s4.6-.11,5.38-2.89c1.28-4.6-7.88-3.68-10.56-6.47l1.61-6.34Z" style="fill:#dd6a57"></path><path d="M523.09,133.21c3.13-2.34,1.76-8.6,4.43-11.26,3.62-3.61,5.69,3.54,2.81,10.31l-3.15,4.86Z" style="fill:#dd6a57"></path><path d="M509.65,152.45a0,0,0,1,0-.06.06,29.64,29.64,0,0,0,15.4,8.67c.18,0,.32-.25.12-.33A61,61,0,0,1,509.65,152.45Z" style="fill:#263238"></path><path d="M512.61,146.25c-.05-.05-.12,0-.07.09a27.86,27.86,0,0,0,17.39,8.42c.23,0,.45-.21.19-.24C525.65,153.87,517,149.63,512.61,146.25Z" style="fill:#263238"></path><path d="M534.4,147.84c-6.45-.69-12-3.38-17.38-7-.07,0-.13.06-.08.11,2.13,2.47,5.77,4.4,8.74,5.66a17.14,17.14,0,0,0,8.7,1.42C534.5,148.05,534.54,147.85,534.4,147.84Z" style="fill:#263238"></path></g><g id="freepik--character-1--inject-23"><path d="M186.54,147.82c4.42,5.79,22.21,21.58,33.65,20.26,10.26-1.18,27.23-32.23,30.05-45.6,1-4.69-19.69-2.09-23.19.49-3,2.21-11.94,22.81-13.43,22.81-2.51,0-9.35-2.54-20.37-6.37C182.88,135.8,183.42,143.73,186.54,147.82Z" style="fill:#ad6359"></path><path d="M223.25,126.59l27,.86s-15.36,39.18-30,41.59c-3.38.56-21.22-4.79-33.21-19.24-3.71-4.47-7.49-15.28,7.78-10.27s18.24,5.54,18.68,5.32S223.25,126.59,223.25,126.59Z" style="fill:#FFB30E"></path><path d="M246.82,132.72a62.13,62.13,0,0,0-6.39-.56c-2.09-.14-4.19-.27-6.28-.38-4.23-.23-8.48-.57-12.72-.52a.08.08,0,0,0,0,.16c4.22.64,8.52.86,12.78,1.12q3.21.19,6.41.3a56,56,0,0,0,6.21,0C246.92,132.87,246.9,132.73,246.82,132.72Z" style="fill:#263238"></path><path d="M314.24,121.69c2.88-.33,5.71-.24,5.91,1.1v0c.1,1.35-2.63,2.09-5.51,2.43Z" style="fill:#263238"></path><path d="M293.44,109.22c3-.34,17.08,8.4,21.72,12.36a3,3,0,0,1,.46,3.56c-3.57,4.85-15.36,16.65-18.38,17-2.05.24-9.66-1.12-17.49-1.9-10.21-1.07-137.56,10.38-139,9.76s-2.28-4.16-2.51-6.15-.26-5.69,1-6.63,127.9-18.79,137.6-22.16C284.29,112.52,291.39,109.46,293.44,109.22Z" style="fill:#37474f"></path><path d="M293.46,109.22a2,2,0,0,1,1,.12A79.16,79.16,0,0,1,298.66,127a51.94,51.94,0,0,1-.19,14.61,2.66,2.66,0,0,1-1.21.51,8.38,8.38,0,0,1-1.37,0c.9-4.43,2.17-15.92-3.9-32.58A7.35,7.35,0,0,1,293.46,109.22Z" style="fill:#a6a6a6"></path><rect x="257.15" y="108.81" width="6.82" height="41.78" rx="0.73" transform="translate(161.59 403.41) rotate(-96.58)" style="fill:#263238"></rect><rect x="264.32" y="115.77" width="3.98" height="26.52" rx="0.43" transform="translate(168.67 408.38) rotate(-96.59)" style="fill:#a6a6a6"></rect><rect x="269.63" y="126.6" width="1.17" height="3.97" transform="translate(-12.94 31.78) rotate(-6.57)" style="fill:#263238"></rect><path d="M122.41,334.83,104.68,370c-3.42,6.7-6.3,12.64-7.5,15.85,0,0,0,0,0,0a5.11,5.11,0,0,0-.56,2.33.13.13,0,0,0,0,.06c1.31,2.37,54.08,31.28,56.26,31.67s3.46-5.8,2.31-8.55-16.42-22.87-16.42-22.87l17.37-35.3Z" style="fill:#ad6359"></path><path d="M108.32,362.78,104.68,370c-3.42,6.7-6.3,12.64-7.5,15.85,0,0,0,0,0,0a10,10,0,0,0-.56,2.33.13.13,0,0,0,0,.06c1.31,2.37,54.08,31.28,56.26,31.67s3.46-5.8,2.31-8.55-16.42-22.87-16.42-22.87l3.79-7.27Z" style="fill:#fff"></path><path d="M142,390.25c-3.26-2.42-7.92-4-11.9-2.8-.16.05-.09.27.05.29a56.44,56.44,0,0,1,11.62,2.95A.25.25,0,0,0,142,390.25Z" style="fill:#263238"></path><path d="M143.86,393.07c-3.26-2.42-7.92-4-11.91-2.79-.15.05-.08.26.05.28a56.14,56.14,0,0,1,11.62,3A.26.26,0,0,0,143.86,393.07Z" style="fill:#263238"></path><path d="M145.69,395.89c-3.26-2.42-7.92-4-11.91-2.79-.15,0-.08.27.05.29a56.12,56.12,0,0,1,11.62,2.95A.26.26,0,0,0,145.69,395.89Z" style="fill:#263238"></path><path d="M152.87,420c-2.18-.39-54.95-29.3-56.26-31.68-.51-.89,3.25-8.82,8.08-18.28l.15-.3L139.09,388l-.33.57s15.25,20.1,16.42,22.87S155.05,420.35,152.87,420Z" style="fill:#455a64"></path><path d="M153.4,417.58c-8.78-5.09-44.65-24.79-53.72-29.16-.07,0-.1,0,0,.06,8.59,5.23,44.63,24.65,53.67,29.25C153.51,417.83,153.58,417.69,153.4,417.58Z" style="fill:#263238"></path><path d="M149.44,371.61c.41-.2,21-38,29.67-60s19.67-68.93,21.83-78.55a141.73,141.73,0,0,0,8.94-34.53s-46.56,0-46.56,0-7.66,13.77-5.91,39.87c.11,1.62-13.75,55.28-17.67,62.41-6,10.94-28.32,49.95-29.09,50.35Z" style="fill:#263238"></path><path d="M191.52,207.86c-2.46,10.56-4.58,21.2-6.83,31.8s-4.51,21.32-6.77,32c-1.11,5.26-2.19,10.52-3.35,15.76A94.46,94.46,0,0,1,170,302.58c-2,4.85-4.24,9.58-6.47,14.32s-4.52,9.51-6.83,14.24q-7,14.25-14.33,28.32l-1.82,3.46a.07.07,0,1,0,.13.07c5.18-9.22,10.2-18.53,15-28s9.47-18.88,13.75-28.53a90,90,0,0,0,5.11-14.78c1.27-5.17,2.27-10.41,3.36-15.62l6.69-32.15c2.22-10.66,4.45-21.33,6.62-32q.4-2,.78-4C192.05,207.68,191.59,207.56,191.52,207.86Z" style="fill:#455a64"></path><path d="M190.57,361.18s.33,39.36.33,39.38c0,7.53.18,14.13.58,17.53a.13.13,0,0,0,0,.06,5.3,5.3,0,0,0,.56,2.32l0,0c2.25,1.51,62.4,3.07,64.52,2.42s.42-6.74-1.86-8.66-25.06-12.82-25.06-12.82L229,362.12Z" style="fill:#ad6359"></path><path d="M190.83,392.48s.07,8.06.07,8.08c0,7.53.18,14.13.58,17.53a.13.13,0,0,0,0,.06,9.94,9.94,0,0,0,.56,2.32l0,0c2.25,1.51,62.4,3.07,64.52,2.42s.42-6.74-1.86-8.66-25.06-12.82-25.06-12.82l0-8.2Z" style="fill:#fff"></path><path d="M233.37,401.48c-4-.66-8.87.06-11.86,3-.11.11.05.27.18.23A55.62,55.62,0,0,1,233.37,402,.26.26,0,0,0,233.37,401.48Z" style="fill:#263238"></path><path d="M236.29,403.16c-4-.66-8.87,0-11.86,3-.12.11,0,.28.17.23a56.2,56.2,0,0,1,11.69-2.69A.25.25,0,0,0,236.29,403.16Z" style="fill:#263238"></path><path d="M239.21,404.83c-4-.66-8.87.06-11.86,3-.12.11,0,.27.17.23a55.62,55.62,0,0,1,11.68-2.69A.26.26,0,0,0,239.21,404.83Z" style="fill:#263238"></path><path d="M256.61,422.94c-2.12.65-62.27-.91-64.52-2.42-.86-.56-1.15-9.34-1.19-20v-.33l38.81.57,0,.66s22.76,10.9,25.06,12.82S258.73,422.3,256.61,422.94Z" style="fill:#455a64"></path><path d="M256,420.59c-10.13-.51-51.05-1.62-61.11-1.36-.08,0-.08.06,0,.07,10,.72,51,1.5,61.11,1.46C256.2,420.76,256.2,420.6,256,420.59Z" style="fill:#263238"></path><path d="M183.45,235.27s6.63,65.09,6.74,66.63c0,.6-.92,79.64-.92,79.64l41.18,1.17s.37-73.51-.3-82.71c-.08-1.07-4.07-68.93-16.84-106.39H164.57s.43,22,10.44,37.93A83.72,83.72,0,0,1,183.45,235.27Z" style="fill:#263238"></path><path d="M219.6,309.19c-.19-12-.69-24.07-1.63-36.07s-2.41-23.7-4.35-35.46a291.73,291.73,0,0,0-7.74-35.07c-.43-1.45-.86-2.89-1.31-4.32a.16.16,0,0,0-.3.09c3.11,11.53,5.79,23.16,7.82,34.93s3.37,23.76,4.38,35.72,1.59,24,1.89,36,.33,24,.21,36-.58,16.69-.62,28.69c0,1.5,0,3,0,4.51,0,.1.16.1.16,0,.21-6,.58-12,.78-18.06s.38-4.76.52-10.8C219.64,333.34,219.79,321.26,219.6,309.19Z" style="fill:#455a64"></path><path d="M190,238.26q-3.6-1.95-7.36-3.55c-2.53-1.08-5.09-2.05-7.59-3.17-.1,0-.18.09-.08.14,2.45,1.27,4.87,2.64,7.36,3.84a58.67,58.67,0,0,0,7.56,3C190,238.59,190.1,238.34,190,238.26Z" style="fill:#455a64"></path><path d="M186.93,264.22c-.61-6.14-1.27-12.28-2-18.4-.22-1.73-.44-3.45-.67-5.18a39.31,39.31,0,0,0-.82-4.95c0-.08-.15-.06-.15,0a38.88,38.88,0,0,0,.31,4.69c.14,1.48.28,3,.43,4.44.29,3.05.56,6.1.87,9.14.62,6.09,1.16,12.19,1.78,18.29.36,3.46.68,6.93,1.18,10.38,0,.25.41.26.4,0C188.12,276.5,187.53,270.34,186.93,264.22Z" style="fill:#455a64"></path><path d="M197.23,145.19c-2.59.51-8.73-3.54-11.46-7.33-.19-.26-.12-3.25-.22-6.88-.07-2.21-.19-4.66-.47-6.89-.06-.46,1.61.19,1.61.19l3,.34,9.83,1.13a35.84,35.84,0,0,0-.28,8.73,4.18,4.18,0,0,0,.21.91,1.55,1.55,0,0,1,0,.15C200,137.24,201.28,144.4,197.23,145.19Z" style="fill:#ad6359"></path><path d="M199.42,135.39a1.55,1.55,0,0,1,0,.15,9.41,9.41,0,0,1-1.43.25c-9.45,1-12.12-10.87-12.12-10.87l3.75-.3,9.83,1.13a35.84,35.84,0,0,0-.28,8.73A4.18,4.18,0,0,0,199.42,135.39Z" style="fill:#263238"></path><path d="M189.49,131.59h0" style="fill:none;stroke:#f4a69d;stroke-linecap:round;stroke-linejoin:round;stroke-width:0px"></path><path d="M182.48,105.21c-1.51,5,1.16,19.44,4.73,22.65,5.17,4.66,13.61,5.08,17.56-1.13,3.83-6,0-24.76-4-27.68C194.93,94.76,184.72,97.82,182.48,105.21Z" style="fill:#ad6359"></path><path d="M197.41,113.51s-.06.07,0,.11c.25.95.37,2.09-.43,2.61,0,0,0,.06,0,0C198,115.89,197.8,114.38,197.41,113.51Z" style="fill:#263238"></path><path d="M196.33,112.7c-1.58.23-1,3.37.46,3.16S197.65,112.51,196.33,112.7Z" style="fill:#263238"></path><path d="M202.56,112.39s.08,0,.09.07c.15,1,.48,2.07,1.42,2.23,0,0,0,.06,0,.06C203,114.79,202.54,113.34,202.56,112.39Z" style="fill:#263238"></path><path d="M203.24,111.21c1.54-.41,2.24,2.71.81,3.08S201.94,111.55,203.24,111.21Z" style="fill:#263238"></path><path d="M194.82,111.49a10.77,10.77,0,0,0,1.14-.65,2.08,2.08,0,0,0,1-.89.67.67,0,0,0-.26-.78,1.67,1.67,0,0,0-1.69.14,2.5,2.5,0,0,0-1.2,1.3A.72.72,0,0,0,194.82,111.49Z" style="fill:#263238"></path><path d="M204.1,109.78a11.2,11.2,0,0,1-1.3-.09,2.09,2.09,0,0,1-1.32-.35.66.66,0,0,1-.11-.81,1.67,1.67,0,0,1,1.58-.62,2.49,2.49,0,0,1,1.65.65A.72.72,0,0,1,204.1,109.78Z" style="fill:#263238"></path><path d="M197.61,122.84c.28.18.57.45.93.42a2.56,2.56,0,0,0,1-.44,0,0,0,0,1,.05,0,1.32,1.32,0,0,1-1.14.76,1.06,1.06,0,0,1-.92-.72C197.5,122.85,197.57,122.81,197.61,122.84Z" style="fill:#263238"></path><path d="M198.1,119.74a3.33,3.33,0,0,0,2.48,1.06,4.08,4.08,0,0,0,1.2-.16,1.14,1.14,0,0,0,.22-.07l.21-.07a.26.26,0,0,0,.16-.26h0a.3.3,0,0,0,0-.1h0v-.08c-.12-.76-.4-1.88-.4-1.88.29.09,1.81.45,1.71.07a50.29,50.29,0,0,0-3.14-9.79.09.09,0,0,0-.17.06c.64,3.11,1.82,6.08,2.51,9.2a5.78,5.78,0,0,0-1.65-.19c-.1,0,.59,2.17.62,2.51v0a4.69,4.69,0,0,1-3.63-.42C198.09,119.59,198,119.67,198.1,119.74Z" style="fill:#263238"></path><path d="M201.27,120.34a4,4,0,0,1-1.35,1.51,1.81,1.81,0,0,1-1.06.27c-.81-.06-1-.77-.94-1.41a4.71,4.71,0,0,1,.18-1A5.2,5.2,0,0,0,201.27,120.34Z" style="fill:#263238"></path><path d="M199.92,121.85a1.81,1.81,0,0,1-1.06.27c-.81-.06-1-.77-.94-1.41A1.85,1.85,0,0,1,199.92,121.85Z" style="fill:#eb9481"></path><path d="M195.61,119.27a4.65,4.65,0,1,1,4.28-6h0a4.64,4.64,0,0,1-3.14,5.77A4.46,4.46,0,0,1,195.61,119.27Zm-.32-8.66a3.79,3.79,0,0,0-1,.16,4,4,0,1,0,1-.16Z" style="fill:#FFB30E"></path><path d="M206.14,117.57c-1.78.07-3.46-1.69-3.83-4.08a5.58,5.58,0,0,1,.47-3.37,3.09,3.09,0,0,1,2.23-1.76,3,3,0,0,1,2.66,1,5.48,5.48,0,0,1,1.47,3.06c.4,2.53-.81,4.83-2.7,5.12A1.53,1.53,0,0,1,206.14,117.57Zm-.8-8.62-.23,0a2.48,2.48,0,0,0-1.78,1.43,5,5,0,0,0-.41,3c.35,2.19,1.88,3.78,3.43,3.54s2.52-2.22,2.18-4.41a4.94,4.94,0,0,0-1.3-2.72A2.55,2.55,0,0,0,205.34,109Z" style="fill:#FFB30E"></path><path d="M199.82,113.87l-.46-.41c.6-.69,2.09-1.73,3.4-.71l-.39.49C201.2,112.32,199.88,113.8,199.82,113.87Z" style="fill:#FFB30E"></path><path d="M179.55,118.24,179,118c.09-.27.93-2.69,2.27-3.13s9.59-.92,9.95-.94l0,.62c-2.39.15-8.83.59-9.79.91S179.78,117.57,179.55,118.24Z" style="fill:#FFB30E"></path><path d="M183,117c-.55-1.23-5.93-14.6-5.78-16.17S179,99.7,179,99.61s-.13-1.34.57-1.92a2.12,2.12,0,0,1,1.69-.22s0-1.36.82-1.84a1.71,1.71,0,0,1,1.68.11A2.23,2.23,0,0,1,184.82,94a1.46,1.46,0,0,1,1.7.37s.16-1.31,1-1.68,1.71.45,1.71.45.31-1.22,1.36-1.39a1.66,1.66,0,0,1,1.63.92s.46-1.21,1.45-1.38,1.51,1,1.51,1,.24-1.16,1.18-1.22,1.36,1.2,1.36,1.2.34-1.29,1.49-1.09c1.76.29,3.17,8.3,4.07,11.74,0,0-.72-1.6-1.44-1.56s-1.09,1.26-2.38,1.75c-1.83.7-5.32-1-7.85-.11s-4,3.87-4.27,8C187,115.61,184.33,119.88,183,117Z" style="fill:#263238"></path><path d="M185.6,117s-3.37-4.59-5.47-3.38.52,7.92,3,8.79a2.53,2.53,0,0,0,3.36-1.43Z" style="fill:#ad6359"></path><path d="M180.93,115.5s-.05,0,0,.06a6.41,6.41,0,0,1,3.39,3.93,1.39,1.39,0,0,0-2.09-.34c-.05,0,0,.11.05.1a1.55,1.55,0,0,1,1.72.5,7.13,7.13,0,0,1,.85,1.37c.09.15.37.06.3-.12v0C185.12,118.74,183.32,115.67,180.93,115.5Z" style="fill:#263238"></path><path d="M156.34,213.77c.14.16,62.58,1.36,63.16.73.81-.89-9.39-63.49-19.32-77.14-2.48-3.41-11.34-5.74-15-2.28-10.69,10-12.92,18.46-15.71,25.35-2.06,5.11-4.56,13.82-6.8,22.75C158.91,197.89,155.83,213.17,156.34,213.77Z" style="fill:#FFB30E"></path><path d="M190.28,146.12c5.18,7,28.35,32,39.81,30.86,13.89-1.33,30.58-7.88,37.38-13.09,3.81-2.92-11.38-21.37-15.13-19.18-5.92,3.46-18.07,7-20.49,7.73s-22.38-9.85-33.4-15.05C188.52,132.71,187.23,142,190.28,146.12Z" style="fill:#ad6359"></path><path d="M263.61,166.06c11.49-6,19.34-18.06,20.22-20.38.76-2,1.12-3,1.12-3,1.43-3.51.43-5.53.43-5.53s2.84-3.58,1-5.65c-2.09-2.33-5.67,3.15-9.48,5-8.73,4.14-22.3,7.6-24.94,8.55Z" style="fill:#ad6359"></path><path d="M270.76,147.24a61.56,61.56,0,0,0,7.44-4.06,62.44,62.44,0,0,0,7.07-6,.07.07,0,0,1,.11.1,32.88,32.88,0,0,1-14.51,10.21C270.74,147.51,270.64,147.31,270.76,147.24Z" style="fill:#263238"></path><path d="M272.5,152.88a45.88,45.88,0,0,0,12.39-10.25s.06,0,0,0a29.6,29.6,0,0,1-12.28,10.45C272.49,153.19,272.34,153,272.5,152.88Z" style="fill:#263238"></path><path d="M266,140.8c-1.35.09-1.4-.62.38-2.23s10.24-6.46,8.3-9.27-13.76,4.22-16.54,7.13a63.64,63.64,0,0,0-6.24,8.59C254.5,144.11,261,142.51,266,140.8Z" style="fill:#ad6359"></path><path d="M247.19,145.85l14.46,23.75s-23.13,10-33.56,8.32-27.09-18.12-35.42-28-7-19.89,11.09-10.66,26.61,12.48,27.75,12.48S247.19,145.85,247.19,145.85Z" style="fill:#FFB30E"></path><path d="M211.11,168.09c-1-1-4.52-4.08-5.33-4.84-1.64-1.54-3.28-3.09-4.9-4.66-3.26-3.16-6.47-6.41-9.93-9.36,0,0-.1,0-.06.07,1.84,2.26,3.82,4.41,5.88,6.49l-.42-.24c-1.21-.68-2.45-1.32-3.59-2.11-.08-.06-.16.08-.07.13,1.15.75,2.23,1.61,3.36,2.39.55.37,1.09.74,1.67,1.08.22.12.45.26.69.38.65.63,1.3,1.26,2,1.88,1.67,1.57,3.37,3.11,5.14,4.58.86.71,4.64,3.64,5.51,4.33C211.1,168.28,211.19,168.17,211.11,168.09Z" style="fill:#263238"></path><path d="M256.17,170.73c-.9-1.94-2.07-3.76-3.15-5.59s-2.14-3.61-3.23-5.41c-2.19-3.62-4.31-7.31-6.74-10.78a.08.08,0,0,0-.14.07c1.85,3.85,4.1,7.53,6.29,11.19,1.1,1.83,2.22,3.66,3.37,5.46a54.46,54.46,0,0,0,3.46,5.15C256.1,170.9,256.2,170.81,256.17,170.73Z" style="fill:#263238"></path><path d="M240.32,148.41c-2.36.73-4.63,1.72-7,2.45a5.18,5.18,0,0,1-3.21,0c-1.16-.38-13.69-5.37-15.9-6.42-.09-.05-.16.09-.07.13,2.3,1,10.58,5,12.94,6a22.9,22.9,0,0,0,3.24,1.27,4.66,4.66,0,0,0,3.1-.27c2.32-1,4.69-1.89,7-2.95C240.5,148.54,240.42,148.37,240.32,148.41Z" style="fill:#263238"></path><path d="M197.52,135.2c-5-2.66-18.55-3.83-24-.15-6.92,4.64-13.29,31.55-10.47,33.14,5,2.84,22.48-12.79,26.28-19.2S197.52,135.2,197.52,135.2Z" style="fill:#FFB30E"></path><path d="M194,143.24c-.89.94-1.81,1.85-2.69,2.8,1.18-1.87,2.36-3.72,3.48-5.62a.07.07,0,0,0-.11-.07,71.6,71.6,0,0,0-4.32,6c-1.43,2.07-2.87,4.15-4.41,6.15A49.49,49.49,0,0,1,181,158.2a53.79,53.79,0,0,1-6.15,5c-1.22.86-2.46,1.71-3.71,2.52a31.59,31.59,0,0,1-4.22,2.3c-.27.11-.09.19,0,.16a23.06,23.06,0,0,0,3.62-1.72c1.2-.69,2.4-1.38,3.58-2.09a48.23,48.23,0,0,0,6.52-4.52c4-3.37,6.85-7.61,9.54-12,0-.08.1-.17.16-.25.52-.57,1-1.15,1.53-1.75.72-.87,1.46-1.69,2.24-2.5A.08.08,0,0,0,194,143.24Z" style="fill:#263238"></path><path d="M217,122.61c3.24-2.53,6.79-7.85,9.67-8.86a3.51,3.51,0,0,1,4,1.1s.82-3.28,3.59-3.77c1.42-.25,3.07,1.81,3.07,1.81a4.18,4.18,0,0,1,3.26-2.88c2-.22,3.34,1.87,3.34,1.87s1.9-2.15,4-1.73c4.24.86,7.93,17.58,2.34,21.52-2.6,1.84-3.28-2.3-3.28-2.3s-.46,6.18-3.89,7-4-4.57-4-4.57-.5,6-4.14,6.5c-3.79.55-3.42-5-3.42-5s-1.7,4.27-4.58,4c-4.76-.39-.72-8.67-2.4-12.15l-6.51-.69Z" style="fill:#ad6359"></path><path d="M221.5,118.09c-3.28,2.12-8.67-1.33-12.1.24-4.64,2.14,1.35,6.57,8.69,6.22l5.66-1.27Z" style="fill:#ad6359"></path><path d="M244.21,112.18c0-.05.06-.09.08,0a29.63,29.63,0,0,1,2.78,17.44c0,.19-.35.22-.36,0A60.8,60.8,0,0,0,244.21,112.18Z" style="fill:#263238"></path><path d="M237.37,112.8c0-.06.08-.1.11,0A27.77,27.77,0,0,1,239.33,132c-.07.22-.35.36-.29.1C240,127.67,239,118.08,237.37,112.8Z" style="fill:#263238"></path><path d="M231.29,133.79c1.6-6.3,1-12.47-.48-18.73,0-.08.09-.1.13,0,1.57,2.86,2.11,6.94,2.27,10.16a17.18,17.18,0,0,1-1.7,8.65C231.45,134,231.25,133.92,231.29,133.79Z" style="fill:#263238"></path></g><g id="freepik--speech-bubble--inject-23"><path d="M437.47,137.17a13.48,13.48,0,0,1-2.31-7.46c0-9.44,10.37-17.1,23.15-17.1s23.15,7.66,23.15,17.1-10.36,17.1-23.15,17.1a27.76,27.76,0,0,1-16-4.73l-8,2Z" style="fill:#fff"></path><path d="M437.47,137.17a13.2,13.2,0,0,1-.61-14.33,18.42,18.42,0,0,1,5.1-5.59,24.51,24.51,0,0,1,6.75-3.46,31.33,31.33,0,0,1,7.43-1.51,32.07,32.07,0,0,1,7.58.37,26.92,26.92,0,0,1,7.27,2.26,22.58,22.58,0,0,1,6.28,4.33,16.17,16.17,0,0,1,4.06,6.5,13.09,13.09,0,0,1,.07,7.69,15.81,15.81,0,0,1-4,6.55,22.21,22.21,0,0,1-6.22,4.41,29.84,29.84,0,0,1-14.82,2.72,27.6,27.6,0,0,1-14.19-4.84l.19,0-8,1.92-.25.06.11-.22Zm0,0-3,7-.14-.17,8-2.13.09,0,.09.06a27.22,27.22,0,0,0,14,4.5,30.92,30.92,0,0,0,7.38-.51,26.89,26.89,0,0,0,7-2.28,21.51,21.51,0,0,0,5.95-4.26,15,15,0,0,0,3.7-6.18,12.25,12.25,0,0,0-.1-7.12,15,15,0,0,0-3.79-6.12,21.59,21.59,0,0,0-6-4.18,26.29,26.29,0,0,0-7-2.22,30.79,30.79,0,0,0-14.64.94,20.93,20.93,0,0,0-11.69,8.6,13.25,13.25,0,0,0-2,7.05A13.83,13.83,0,0,0,437.47,137.17Z" style="fill:#263238"></path><path d="M466.64,129.71a2.4,2.4,0,1,0,2.4-2.4A2.39,2.39,0,0,0,466.64,129.71Z" style="fill:#263238"></path><circle cx="458.31" cy="129.71" r="2.4" style="fill:#263238"></circle><circle cx="447.58" cy="129.71" r="2.4" style="fill:#263238"></circle></g></svg>