<svg xmlns="http://www.w3.org/2000/svg" viewBox="0 0 500 500"><g id="freepik--background-complete--inject-21"><rect y="382.4" width="500" height="0.25" style="fill:#ebebeb"></rect><rect x="416.78" y="398.49" width="33.12" height="0.25" style="fill:#ebebeb"></rect><rect x="292" y="401.21" width="39.22" height="0.25" style="fill:#ebebeb"></rect><rect x="358.76" y="389.21" width="57.02" height="0.25" style="fill:#ebebeb"></rect><rect x="174.48" y="390.89" width="68.63" height="0.25" style="fill:#ebebeb"></rect><rect x="252.01" y="390.89" width="6.33" height="0.25" style="fill:#ebebeb"></rect><rect x="98.33" y="395.11" width="126.81" height="0.25" style="fill:#ebebeb"></rect><path d="M237,337.8H43.91a5.71,5.71,0,0,1-5.7-5.71V60.66A5.71,5.71,0,0,1,43.91,55H237a5.71,5.71,0,0,1,5.71,5.71V332.09A5.71,5.71,0,0,1,237,337.8ZM43.91,55.2a5.46,5.46,0,0,0-5.45,5.46V332.09a5.46,5.46,0,0,0,5.45,5.46H237a5.47,5.47,0,0,0,5.46-5.46V60.66A5.47,5.47,0,0,0,237,55.2Z" style="fill:#ebebeb"></path><path d="M453.31,337.8H260.21a5.72,5.72,0,0,1-5.71-5.71V60.66A5.72,5.72,0,0,1,260.21,55h193.1A5.71,5.71,0,0,1,459,60.66V332.09A5.71,5.71,0,0,1,453.31,337.8ZM260.21,55.2a5.47,5.47,0,0,0-5.46,5.46V332.09a5.47,5.47,0,0,0,5.46,5.46h193.1a5.47,5.47,0,0,0,5.46-5.46V60.66a5.47,5.47,0,0,0-5.46-5.46Z" style="fill:#ebebeb"></path><circle cx="366.55" cy="137.83" r="52.42" style="fill:#e0e0e0"></circle><circle cx="370.52" cy="137.83" r="52.42" style="fill:#f5f5f5"></circle><circle cx="370.52" cy="137.83" r="44.98" style="fill:#fff"></circle><path d="M370.52,139a1.15,1.15,0,0,1-1.08-.73,1.17,1.17,0,0,1,.64-1.53l23.65-9.54a1.18,1.18,0,0,1,.88,2.18L371,138.92A1.11,1.11,0,0,1,370.52,139Z" style="fill:#f5f5f5"></path><path d="M359.93,157.81a2.35,2.35,0,0,1-2-3.56l9.84-16.38L350.62,111.2a2.35,2.35,0,1,1,3.95-2.54l17.93,27.9a2.36,2.36,0,0,1,0,2.48L362,156.67A2.36,2.36,0,0,1,359.93,157.81Z" style="fill:#ebebeb"></path><rect x="85.77" y="73.07" width="122.98" height="123.31" style="fill:#f0f0f0"></rect><rect x="208.75" y="73.07" width="2.12" height="123.31" transform="translate(419.62 269.44) rotate(180)" style="fill:#e0e0e0"></rect><rect x="96.63" y="80.85" width="101.26" height="107.73" style="fill:#fafafa"></rect><path d="M155.17,92.38c-11.36-2.62-21.63,6.25-33,7-6.06,1.13-14.11,4.82-11.63,12.37-.47,19,.61,30.2,19.11,39.42,5.53,4,12.1,6.81,19,5.1,7.78-1,18.49-4.7,16.19-14.6a33.18,33.18,0,0,0-2.33-14.6c-.52-4.54,3.27-8.1,4.43-12.27C169.75,105.93,163.9,95.28,155.17,92.38Z" style="fill:#fff"></path><path d="M145.54,126.62a7,7,0,0,1,3.46.62,7.4,7.4,0,0,1,2.38,1.71c1.35,1.38,2.72,2.73,4.05,4.13,2.69,2.76,5.32,5.57,7.93,8.41s5.14,5.76,7.64,8.71,4.95,6,7.24,9.12a3,3,0,0,1-4.15,4.14c-3.16-2.29-6.14-4.75-9.11-7.23s-5.86-5-8.71-7.64-5.66-5.25-8.42-7.94c-1.39-1.33-2.75-2.7-4.12-4.05a7.34,7.34,0,0,1-2.34-5.84A4.41,4.41,0,0,1,145.54,126.62Z" style="fill:#ebebeb"></path><path d="M139.93,125.16c-6.76,6.76-12.94-1.18-13.53-5.89s-2-10-8.05-10.38C134.05,105.15,150.62,114.47,139.93,125.16Z" style="fill:#e0e0e0"></path><path d="M123.43,222.29a5,5,0,1,0,5.4-4.58A5,5,0,0,0,123.43,222.29Z" style="fill:#e0e0e0"></path><path d="M131.61,224.91a5,5,0,1,0,5.4-4.58A5,5,0,0,0,131.61,224.91Z" style="fill:#e0e0e0"></path><path d="M140.37,225.93a5,5,0,1,0,5.4-4.58A5,5,0,0,0,140.37,225.93Z" style="fill:#e0e0e0"></path><path d="M114.13,224.91a5,5,0,1,0,5.4-4.58A5,5,0,0,0,114.13,224.91Z" style="fill:#e0e0e0"></path><path d="M147.59,224.91a5,5,0,1,0,5.4-4.58A5,5,0,0,0,147.59,224.91Z" style="fill:#e0e0e0"></path><path d="M107.4,221.92a5,5,0,1,0,5.4-4.58A5,5,0,0,0,107.4,221.92Z" style="fill:#e0e0e0"></path><path d="M100.31,223.77a5,5,0,1,0,5.4-4.58A5,5,0,0,0,100.31,223.77Z" style="fill:#e0e0e0"></path><path d="M94.59,225.12s.86,20.5,33.79,20.5,33.78-20.5,33.78-20.5Z" style="fill:#f0f0f0"></path><rect x="419.61" y="258.23" width="9.47" height="124.17" style="fill:#e6e6e6"></rect><rect x="426.04" y="258.23" width="5.58" height="124.17" style="fill:#f0f0f0"></rect><rect x="379.32" y="258.23" width="9.47" height="124.17" style="fill:#e6e6e6"></rect><rect x="384.99" y="258.23" width="5.58" height="124.17" style="fill:#f0f0f0"></rect><rect x="350.08" y="258.23" width="83.26" height="17.6" transform="translate(783.43 534.05) rotate(180)" style="fill:#f0f0f0"></rect><rect x="299.52" y="258.23" width="9.47" height="124.17" style="fill:#e6e6e6"></rect><rect x="305.19" y="258.23" width="5.58" height="124.17" style="fill:#f0f0f0"></rect><rect x="297.83" y="258.23" width="48.21" height="17.6" transform="translate(643.86 534.05) rotate(180)" style="fill:#e6e6e6"></rect><rect x="339.81" y="258.23" width="9.47" height="124.17" style="fill:#e6e6e6"></rect><rect x="346.24" y="258.23" width="5.58" height="124.17" style="fill:#f0f0f0"></rect><polygon points="398.06 201.71 331 201.71 337.83 258.23 404.9 258.23 398.06 201.71" style="fill:#f5f5f5"></polygon><polygon points="390.17 209.12 340.69 209.12 345.73 250.82 395.21 250.82 390.17 209.12" style="fill:#fafafa"></polygon><rect x="211.57" y="249.79" width="15.76" height="127.83" transform="translate(438.9 627.41) rotate(180)" style="fill:#f0f0f0"></rect><rect x="50.68" y="377.62" width="173.63" height="4.78" transform="translate(274.98 760.02) rotate(180)" style="fill:#f0f0f0"></rect><rect x="47.65" y="249.79" width="163.92" height="127.83" style="fill:#f5f5f5"></rect><rect x="213.2" y="245.62" width="16.11" height="4.17" transform="translate(442.52 495.41) rotate(180)" style="fill:#f0f0f0"></rect><rect x="45.67" y="245.62" width="167.54" height="4.17" style="fill:#fafafa"></rect><path d="M205.9,321.73H53.32V258.54H205.9ZM54.38,320.67H204.84V259.6H54.38Z" style="fill:#e0e0e0"></path><path d="M205.9,368.86H53.32V328.05H205.9ZM54.38,367.8H204.84V329.11H54.38Z" style="fill:#e0e0e0"></path><rect x="73.87" y="259.07" width="111.47" height="3.39" rx="1.4" transform="translate(259.22 521.54) rotate(180)" style="fill:#e0e0e0"></rect><rect x="73.87" y="328.58" width="111.47" height="3.39" rx="1.4" transform="translate(259.22 660.55) rotate(180)" style="fill:#e0e0e0"></rect></g><g id="freepik--Shadow--inject-21"><ellipse id="freepik--path--inject-21" cx="250" cy="416.24" rx="193.89" ry="11.32" style="fill:#f5f5f5"></ellipse></g><g id="freepik--character-2--inject-21"><path d="M280.39,84.52c-5.6-9.4,4.81-12.12,11.52-9.66s11-4.43,17-4.3,6.69,8.59,1.72,10.84S299.73,89.79,294,90.14c.53,8.79-5.53,25.78-8.52,21.1S261.35,92.69,280.39,84.52Z" style="fill:#263238"></path><path d="M280.58,85.9c-1.65,0-5.32-.61-7.88-5.61a1.58,1.58,0,0,1,2.82-1.43c2.2,4.3,5.22,3.89,5.35,3.87A1.58,1.58,0,0,1,282.68,84a1.57,1.57,0,0,1-1.25,1.82A5,5,0,0,1,280.58,85.9Z" style="fill:#263238"></path><polygon points="344.73 404.95 353.23 403 349.44 382.12 340.94 384.07 344.73 404.95" style="fill:#ff8b7b"></polygon><polygon points="282.46 405.28 291.39 405.28 291.37 384.6 282.44 384.6 282.46 405.28" style="fill:#ff8b7b"></polygon><path d="M292.25,404.25H281.36a.74.74,0,0,0-.74.61l-1.44,7.94a1.39,1.39,0,0,0,1.38,1.59c3.5-.06,6.05-.27,10.46-.27,2.71,0,10.91.28,14.66.28s4.09-3.7,2.54-4c-6.94-1.5-12.21-3.58-14.5-5.56A2.24,2.24,0,0,0,292.25,404.25Z" style="fill:#263238"></path><path d="M353.8,401.51l-9.4,2.62a.77.77,0,0,0-.57.79l.43,8.12a1.3,1.3,0,0,0,1.66,1.19c3.38-1,8.22-2.56,12.48-3.75,5-1.38,5.67-1.45,11.51-3.07,3.54-1,3.52-4.83,1.95-4.74-7.14.4-9,.91-15.8-1.06A4.14,4.14,0,0,0,353.8,401.51Z" style="fill:#263238"></path><path d="M323.73,134.57c2,5.9,3.85,11.77,5.53,17.75s3.2,12,4.51,18.13c.67,3.31,1.11,5.64,1.89,8.38l.62,2,.7,2c.48,1.35,1,2.71,1.53,4.06,2.13,5.41,4.76,10.88,7.39,16.16l-5.46,3.9a84.06,84.06,0,0,1-6-7.43,93.14,93.14,0,0,1-5.25-8,71.91,71.91,0,0,1-4.42-8.77,75.68,75.68,0,0,1-3.07-9.3c-1.68-5.74-3.48-11.52-5.32-17.29l-5.47-17.32Z" style="fill:#ff8b7b"></path><path d="M307.42,134c-2.38,8.2,6.86,21.11,6.86,21.11L330.13,150s-.67-9.72-6.1-17.19C317.37,123.59,310,125,307.42,134Z" style="fill:#263238"></path><path d="M315.37,137.68c-4-1.88-7.13-1.68-8.34-.75,0,8,7.25,18.13,7.25,18.13l11.23-3.62C325,147.63,321.65,140.61,315.37,137.68Z" style="opacity:0.2"></path><path d="M345.11,201.69l6.21,7-9.27,3.52s-5.87-4-2.06-9.29Z" style="fill:#ff8b7b"></path><polygon points="353.25 213.25 345.67 216.14 342.05 212.19 351.32 208.67 353.25 213.25" style="fill:#ff8b7b"></polygon><polygon points="349.44 382.13 351.39 392.89 342.89 394.84 340.94 384.08 349.44 382.13" style="opacity:0.2"></polygon><rect x="282.44" y="384.6" width="8.94" height="10.66" style="opacity:0.2"></rect><path d="M267.5,130.29c9.72,33.9,7.89,69.92,8.78,77.21l47.63-3.68c5.29-44.08-3.46-69.55-5.88-75.56a2.68,2.68,0,0,0-2-1.63c-1.3-.21-3.35-.51-5.78-.76-1.31-.13-2.72-.24-4.19-.31-.81,0-1.63-.07-2.47-.09A177.28,177.28,0,0,0,283.29,127c-1.27.16-2.56.36-3.81.57s-2.3.41-3.37.63C271.25,129.22,267.5,130.29,267.5,130.29Z" style="fill:#263238"></path><path d="M270.8,143.87c1.07,5.26,1.92,10.49,2.57,15.53,2.32-8.8,3.84-17.92,3.84-17.92Z" style="opacity:0.2"></path><path d="M283.63,104.23c1.78,6.42,4,18.26-.24,23,3.81,3.24,8.75,6.95,16.51,6.63s6-5.55,3.73-8.2c-7.4-1.17-7.62-6.58-6.75-11.74Z" style="fill:#ff8b7b"></path><path d="M305.15,125.39a7.51,7.51,0,0,0-2.54,0s6.7,6.93-1.81,8.33a40.79,40.79,0,0,1-17.4-7.15,6.32,6.32,0,0,0-1.95.58c1.94,6.66,16.41,12.36,16.41,12.36a5.27,5.27,0,0,1,1.55-4.5l3.42-.3a7,7,0,0,1,3.09,3.8S311.11,131.61,305.15,125.39Z" style="fill:#fff"></path><path d="M289,108.17l7.84,5.71a20.64,20.64,0,0,0-.34,3.64c-2.81-.19-6.86-2.94-7.38-5.82A9.86,9.86,0,0,1,289,108.17Z" style="opacity:0.2"></path><path d="M282.1,94.49c1.22,8.78,1.49,14,6.3,18.16,7.22,6.3,17.8,1.41,19.23-7.56,1.28-8.07-.94-21.07-9.85-23.91A12.08,12.08,0,0,0,282.1,94.49Z" style="fill:#ff8b7b"></path><path d="M282,99.65c2.33,3.65,9-8,6.95-13s-7.47-.44-7.47-.44S278,93.34,282,99.65Z" style="fill:#263238"></path><path d="M283.52,86c8.77,3.53,18.75,3.08,22.14,2.83s7.51-1.2,6.18-5.28c-1.77-5.47-13.34-2.92-17.66-4.34S279.78,81.59,283.52,86Z" style="fill:#263238"></path><path d="M279.1,102.58a7.82,7.82,0,0,0,4.54,3.76c2.55.76,3.78-1.6,3-4.1-.67-2.25-2.81-5.36-5.34-5S277.9,100.34,279.1,102.58Z" style="fill:#ff8b7b"></path><path d="M354.3,390.16l-14.77,3.26S323.6,337,319,309.51c-1.39-8.35-4.56-20.26-7.45-32.8-3.66-15.8-8.23-32.89-12-46.26-3.94-14.09-6.86-24.22-6.86-24.22l31.15-2.41s15.34,73.45,18.57,100.52C345.85,332.49,354.3,390.16,354.3,390.16Z" style="fill:#FFB30E"></path><path d="M354.3,390.16l-14.77,3.26S323.6,337,319,309.51c-1.39-8.35-4.56-20.26-7.45-32.8-3.66-15.8-8.23-32.89-12-46.26-3.94-14.09-6.86-24.22-6.86-24.22l31.15-2.41s15.34,73.45,18.57,100.52C345.85,332.49,354.3,390.16,354.3,390.16Z" style="opacity:0.30000000000000004"></path><path d="M311.58,276.71c-3.66-15.8-8.23-32.89-12-46.26l3.2-7C310.66,232.6,313,261.17,311.58,276.71Z" style="opacity:0.2"></path><path d="M309.07,205s-4.77,76.8-8.35,102.73c-3.91,28.39-6.06,85.5-6.06,85.5H278.3s-3.35-54-1.06-81.81c2.61-31.72-1-103.89-1-103.89Z" style="fill:#FFB30E"></path><path d="M309.07,205s-4.77,76.8-8.35,102.73c-3.91,28.39-6.06,85.5-6.06,85.5H278.3s-3.35-54-1.06-81.81c2.61-31.72-1-103.89-1-103.89Z" style="opacity:0.30000000000000004"></path><polygon points="296.62 393.56 277.36 393.56 277.36 387.8 297.37 386.69 296.62 393.56" style="fill:#FFB30E"></polygon><polygon points="356.23 390.1 338.63 393.99 337.38 388.3 355.8 383.65 356.23 390.1" style="fill:#FFB30E"></polygon><path d="M295,95.92c.06.72.48,1.27.95,1.23s.81-.64.75-1.36-.48-1.27-.95-1.24S294.92,95.2,295,95.92Z" style="fill:#263238"></path><path d="M303.09,95.29c.06.72.48,1.27,1,1.24s.81-.65.75-1.37-.48-1.27-1-1.24S303,94.57,303.09,95.29Z" style="fill:#263238"></path><path d="M301.23,95.85a25.94,25.94,0,0,0,3.91,5.88c-1.18,1.28-3.38.91-3.38.91Z" style="fill:#ff5652"></path><path d="M298.88,104.79a5.92,5.92,0,0,1-4.24-2,.21.21,0,0,1,0-.3.21.21,0,0,1,.29,0,5.75,5.75,0,0,0,4.82,1.87.21.21,0,0,1,.22.19.21.21,0,0,1-.19.23A5.94,5.94,0,0,1,298.88,104.79Z" style="fill:#263238"></path><path d="M293,93.49a.37.37,0,0,1-.2-.07.41.41,0,0,1-.13-.58,4.2,4.2,0,0,1,3.3-2,.42.42,0,0,1,.42.42.41.41,0,0,1-.41.43h0a3.33,3.33,0,0,0-2.6,1.62A.41.41,0,0,1,293,93.49Z" style="fill:#263238"></path><path d="M307.07,92.23a.41.41,0,0,1-.34-.21,3.36,3.36,0,0,0-2.53-1.72.44.44,0,0,1-.4-.45.42.42,0,0,1,.44-.4,4.21,4.21,0,0,1,3.22,2.14.42.42,0,0,1-.15.58A.53.53,0,0,1,307.07,92.23Z" style="fill:#263238"></path><path d="M295.27,405.81a10.59,10.59,0,0,1-2.35-.32.23.23,0,0,1-.17-.17.21.21,0,0,1,.09-.22c.32-.2,3.12-2,4.13-1.46a.72.72,0,0,1,.39.6,1.23,1.23,0,0,1-.39,1.12A2.68,2.68,0,0,1,295.27,405.81Zm-1.75-.62c1.53.31,2.69.25,3.16-.16a.84.84,0,0,0,.26-.77c0-.16-.09-.22-.14-.24C296.27,403.75,294.66,404.52,293.52,405.19Z" style="fill:#FFB30E"></path><path d="M293,405.5a.28.28,0,0,1-.12,0,.2.2,0,0,1-.1-.19c0-.11.11-2.69,1.11-3.54a1.12,1.12,0,0,1,.89-.27h0a.73.73,0,0,1,.7.56c.23,1-1.48,3-2.38,3.45A.19.19,0,0,1,293,405.5Zm1.65-3.62a.76.76,0,0,0-.48.18c-.64.54-.86,2.05-.94,2.8.89-.7,2-2.18,1.83-2.77,0,0,0-.18-.31-.21h-.1Z" style="fill:#FFB30E"></path><path d="M355,402.47a.23.23,0,0,1-.18-.13.2.2,0,0,1,.05-.24c.33-.31,3.3-3,4.51-2.73a.67.67,0,0,1,.49.45h0a1.17,1.17,0,0,1-.11,1.09c-.71,1.1-3.27,1.45-4.73,1.56Zm4.2-2.7c-.71,0-2.39,1.19-3.57,2.22,2-.21,3.38-.69,3.78-1.31a.76.76,0,0,0,.06-.72.23.23,0,0,0-.19-.18Z" style="fill:#FFB30E"></path><path d="M355,402.47l-.06,0a.21.21,0,0,1-.14-.16c0-.1-.43-2.48.42-3.68a1.54,1.54,0,0,1,1-.67h0c.58-.1.82.14.92.36.43.93-1.11,3.36-2,4.12A.3.3,0,0,1,355,402.47Zm1.54-4.13a.94.94,0,0,0-.22,0h0a1.1,1.1,0,0,0-.76.49,5,5,0,0,0-.39,3c.88-.93,1.87-2.78,1.61-3.34C356.75,398.44,356.71,398.36,356.52,398.34Zm-.25-.19Z" style="fill:#FFB30E"></path><path d="M277.27,142.34c-1.44,2.67-3,5.55-4.42,8.37s-2.86,5.69-4.2,8.55a126.85,126.85,0,0,0-6.86,17.21l-.58,2.11c-.07.26,0,.16-.06.13s0,0,0,0a.47.47,0,0,0,0,.23,8.5,8.5,0,0,0,.82,2.82,45.27,45.27,0,0,0,4.48,7.41c3.59,5,7.87,9.93,12.08,14.71l-4.35,5.1a95.23,95.23,0,0,1-8.14-6.14,91.92,91.92,0,0,1-7.55-7,48.11,48.11,0,0,1-6.76-8.71,19.79,19.79,0,0,1-2.49-6.4,12.72,12.72,0,0,1-.2-2.22c0-.4,0-.83.06-1.25l.09-.66c0-.27.05-.27.08-.42l.52-2.68a87,87,0,0,1,2.91-10.15c1.12-3.27,2.38-6.45,3.73-9.57s2.77-6.2,4.3-9.21,3.07-5.95,4.88-9Z" style="fill:#ff8b7b"></path><path d="M267.5,130.29C262.66,132.35,258,147,258,147l12.83,9.66s4.18-6.58,7.32-12C284.19,134.23,277,126.25,267.5,130.29Z" style="fill:#263238"></path><path d="M276.17,202.67l8.66,2.5-6.5,6.81s-7.88-3.18-5.53-6.68Z" style="fill:#ff8b7b"></path><polygon points="288.56 212.65 282.54 216.52 278.32 211.98 284.82 205.17 288.56 212.65" style="fill:#ff8b7b"></polygon><path d="M273.77,261.39a15.37,15.37,0,0,1-6.42-2.46l-24.72-16.69a15.16,15.16,0,0,1-6.7-13.06l1.68-57.4a7.77,7.77,0,0,1,8.86-7.47,7.54,7.54,0,0,1,1.81.47,27.19,27.19,0,0,0,6.09,1.47,55.61,55.61,0,0,0,11.27.31c7.72-.54,14-2.59,16.81-4.39a7.76,7.76,0,0,1,10.05,1.4c2.2,2.49,7.68,6.18,15,8.8a54.63,54.63,0,0,0,10.93,2.77h0a27,27,0,0,0,6.25.25,7.85,7.85,0,0,1,7.28,3.42A7.75,7.75,0,0,1,333,185l-14,55.68a15.12,15.12,0,0,1-10,10.73l-28.35,9.33A15.29,15.29,0,0,1,273.77,261.39Z" style="fill:#FFB30E"></path><path d="M284.78,165.8c-3.86,2.47-11,4.52-18.84,5.06s-14.81-.32-19.24-2.06a3.47,3.47,0,0,0-4.78,3.11l-1.68,57.4a10.89,10.89,0,0,0,4.8,9.35l24.72,16.7a11,11,0,0,0,4.61,1.76l12.76-91.85A3.44,3.44,0,0,0,284.78,165.8Z" style="fill:#fff;opacity:0.30000000000000004"></path><path d="M307.62,247.36a10.9,10.9,0,0,0,7.17-7.7l14-55.67a3.48,3.48,0,0,0-3.76-4.3c-4.74.47-11.81-.64-19.07-3.26s-13.7-6.57-16.74-10a3.45,3.45,0,0,0-2.13-1.15l-12.76,91.85a10.9,10.9,0,0,0,4.9-.44Z" style="fill:#fff;opacity:0.2"></path><path d="M281.11,222.74a2.69,2.69,0,0,0-2.05.65L284,187.82c-6.9,9.72-7.95,18.45-7.95,18.45l3.24,4.29-2.36,17h0c-.4,2.93.8,5.53,2.7,5.79s3.79-1.9,4.19-4.83S283,223,281.11,222.74Zm-1.27,9.15c-1.37-.19-2.24-2.06-1.95-4.17s1.65-3.68,3-3.49,2.25,2.06,2,4.18S281.22,232.08,279.84,231.89Z" style="fill:#fff"></path><path d="M272.1,216a2.69,2.69,0,0,1,.44,2.11l28.64-21.66C296.06,207.18,289,212.36,289,212.36l-5.32-.74L269.92,222h0c-2.36,1.78-5.21,2-6.37.46s-.18-4.23,2.17-6S270.94,214.43,272.1,216Zm-7.37,5.57c.84,1.1,2.9,1,4.6-.33s2.4-3.23,1.57-4.33-2.89-1-4.6.33S263.89,220.43,264.73,221.54Z" style="fill:#fff"></path><path d="M284.69,185.68l-.77-.11.28-2,.77.11Zm.7-5.07-.76-.11.42-3.06.77.11Zm.85-6.12-.76-.1.42-3.06.76.11Zm.85-6.11-.76-.11.42-3.05.76.11Z" style="fill:#fff"></path><path d="M274.75,257.17l-.76-.1.28-2,.76.1Zm.71-5.06-.77-.11.43-3.06.76.11Zm.85-6.12-.77-.1.43-3.06.76.11Zm.85-6.11-.77-.11.43-3.05.76.1Z" style="fill:#fff"></path></g><g id="freepik--character-1--inject-21"><path d="M207.09,96.38c10-3.75,20.65,2.38,23.81,14.07s-3.55,23.38-7.81,25.91c-4.61-3.68-16.91-4-26.8-.51C187.8,121.21,189.5,95.56,207.09,96.38Z" style="fill:#263238"></path><path d="M193,157.22c-.16,2.92-.5,5.59-.87,8.37s-.89,5.47-1.46,8.19a94.69,94.69,0,0,1-4.76,16.13c-.49,1.33-1.14,2.62-1.71,3.93s-1.23,2.47-1.87,3.68c-1.28,2.41-2.58,4.78-3.93,7.13-2.71,4.69-5.49,9.31-8.5,13.82l-4.08-2.12c1.93-5,4-10,6.09-14.91l3.12-7.37,1.49-3.64c.44-1.19.94-2.32,1.31-3.54a108.86,108.86,0,0,0,3.8-14.91c.49-2.54.85-5.12,1.23-7.69s.65-5.21.87-7.65Z" style="fill:#ce7a63"></path><path d="M186.69,146.15c-3.74.95-6.36,16.36-6.36,16.36l14.32,9.74s5.89-18.27,3-22.38C194.66,145.58,192.16,144.76,186.69,146.15Z" style="fill:#263238"></path><polygon points="187.03 149.59 182.17 163.78 189.95 169.05 187.03 149.59" style="opacity:0.2"></polygon><path d="M166.58,214.54l-3.8,9,8.08-1.44s1.91-5.52-.65-8.29Z" style="fill:#ce7a63"></path><polygon points="161.39 228.05 169.36 226.53 170.86 222.1 162.78 223.54 161.39 228.05" style="fill:#ce7a63"></polygon><rect x="158.87" y="219.8" width="25.25" height="13.35" rx="0.81" transform="translate(-84.55 103.43) rotate(-27.2)" style="fill:#FFB30E"></rect><rect x="158.87" y="219.8" width="25.25" height="13.35" rx="0.81" transform="translate(-84.55 103.43) rotate(-27.2)" style="opacity:0.2"></rect><g style="opacity:0.6000000000000001"><polygon points="172.53 233.45 167.67 235.95 160.23 224.75 165.09 222.26 172.53 233.45" style="fill:#fff"></polygon><polygon points="177.03 231.13 172.18 233.63 165.95 221.81 170.81 219.32 177.03 231.13" style="fill:#fff"></polygon><polygon points="180.25 229.48 177.82 230.73 170.38 219.54 172.81 218.29 180.25 229.48" style="fill:#fff"></polygon><polygon points="183.28 227.93 180.18 229.52 173.96 217.7 177.05 216.11 183.28 227.93" style="fill:#fff"></polygon></g><rect x="157.58" y="213.51" width="3.8" height="38.27" rx="1.62" transform="translate(-88.69 98.6) rotate(-27.19)" style="fill:#FFB30E"></rect><rect x="102.73" y="234.81" width="58.29" height="24.04" transform="translate(361.99 406.1) rotate(152.8)" style="fill:#FFB30E"></rect><rect x="100.15" y="238.98" width="58.29" height="5.65" transform="translate(354.81 397.78) rotate(152.8)" style="fill:#fff;opacity:0.2"></rect><rect x="105.31" y="249.04" width="58.29" height="5.65" transform="translate(369.17 414.42) rotate(152.8)" style="fill:#fff;opacity:0.2"></rect><path d="M154.17,213.87A3.86,3.86,0,1,1,149,212.2,3.85,3.85,0,0,1,154.17,213.87Z" style="fill:#FFB30E"></path><path d="M171.66,247.9a3.85,3.85,0,1,1-5.19-1.66A3.86,3.86,0,0,1,171.66,247.9Z" style="fill:#FFB30E"></path><polygon points="86.36 270.23 111.45 270.85 100.46 249.46 86.36 270.23" style="fill:#FFB30E"></polygon><polygon points="100.46 249.47 111.45 270.85 93.28 270.4 90.25 264.5 100.46 249.47" style="fill:#fff;opacity:0.6000000000000001"></polygon><path d="M184.17,149.36c-.47,5.32,0,18.52,5.28,51.27h36.89c-.58-14.23-.63-23.3,5.48-50.44a4.58,4.58,0,0,0-3.73-5.53,100.82,100.82,0,0,0-10.87-1.19,117.06,117.06,0,0,0-16.76,0c-4.58.42-9.55,1.25-12.55,1.8A4.56,4.56,0,0,0,184.17,149.36Z" style="fill:#263238"></path><path d="M229.84,157.74c-3.34.83-6.43,4.47-6.06,11.19a16.07,16.07,0,0,0,3.08,8.45c.59-5.16,1.58-11.16,3.15-18.83Z" style="opacity:0.2"></path><path d="M215.56,124.61c-1.06,5.39-2.12,15.26,1.66,18.86,0,0-3.77,3.35-13.6,8.54-7.47-6-3.16-8.54-3.16-8.54,6-1.43,5.86-5.89,4.81-10.08Z" style="fill:#ce7a63"></path><path d="M211.36,128.19l-6.08,5.19a17.54,17.54,0,0,1,.51,3c2.3-.33,5.91-2.29,6.4-4.79C212.43,130.39,211.56,128.75,211.36,128.19Z" style="opacity:0.2"></path><path d="M221.9,114c-1.41,8.91-1.81,12.71-6.78,16.87-7.46,6.27-18.09,2.59-19.38-6.55-1.15-8.23,1.34-21.42,10.45-24.14A12.29,12.29,0,0,1,221.9,114Z" style="fill:#ce7a63"></path><path d="M207.39,115c-.07.73-.52,1.28-1,1.23s-.81-.67-.74-1.4.51-1.28,1-1.24S207.46,114.31,207.39,115Z" style="fill:#263238"></path><path d="M199.14,114.25c-.07.73-.51,1.28-1,1.24s-.8-.68-.74-1.41.52-1.28,1-1.24S199.21,113.52,199.14,114.25Z" style="fill:#263238"></path><path d="M198.61,112.91l-1.7-.68S197.68,113.69,198.61,112.91Z" style="fill:#263238"></path><path d="M201.56,115.81a19.47,19.47,0,0,1-3.05,4.4,3.18,3.18,0,0,0,2.56.74Z" style="fill:#ba4d3c"></path><path d="M204.77,124.19a8,8,0,0,1-1.08,0,.21.21,0,1,1,0-.42,5.84,5.84,0,0,0,4.93-1.81.21.21,0,1,1,.33.26A6,6,0,0,1,204.77,124.19Z" style="fill:#263238"></path><path d="M223.87,121.27a6.63,6.63,0,0,1-3.54,3.58c-2.14.88-3.48-1-3.11-3.13.33-1.94,1.84-4.74,4.09-4.7A3,3,0,0,1,223.87,121.27Z" style="fill:#ce7a63"></path><path d="M217.72,107.79c1.29,4.17,1.58,12.08-1.87,16.82,5.5-4.87,8.79-10.25,6.21-18.63A34.46,34.46,0,0,0,217.72,107.79Z" style="fill:#263238"></path><path d="M206.86,98.43c-6.83.58-7.7,5.61-9.1,8.14,5-.88,19.19,3.16,21.64,6.57,5.27,1.11,4.24-7.45,4.24-7.45S222.51,97.61,206.86,98.43Z" style="fill:#263238"></path><path d="M210.26,111.22a.44.44,0,0,1-.49-.14c-1.25-1.54-3.81-1.4-3.84-1.4a.43.43,0,0,1-.05-.85c.12,0,3-.18,4.56,1.71a.43.43,0,0,1-.07.61A.41.41,0,0,1,210.26,111.22Z" style="fill:#263238"></path><path d="M196.15,110.31a.43.43,0,0,1-.27-.79,4.29,4.29,0,0,1,3.89-.55.43.43,0,0,1-.33.79,3.42,3.42,0,0,0-3.08.47A.42.42,0,0,1,196.15,110.31Z" style="fill:#263238"></path><polygon points="160.61 405.6 151.89 403.06 157.2 382.69 165.92 385.24 160.61 405.6" style="fill:#ce7a63"></polygon><path d="M152,401.11l9.8,2.86a.72.72,0,0,1,.52.8l-1.15,8.07a1.46,1.46,0,0,1-1.85,1.15c-3.4-1.06-5-1.74-9.29-3-2.65-.77-8.21-2.09-11.88-3.16s-2.79-4.75-1.17-4.63c7.26.52,10.54-.72,13.41-2A2.36,2.36,0,0,1,152,401.11Z" style="fill:#263238"></path><g style="opacity:0.2"><polygon points="157.2 382.7 154.46 393.19 163.18 395.74 165.92 385.24 157.2 382.7"></polygon></g><path d="M189.45,200.63S173.83,271,169.57,298.35c-4.42,28.45-16.24,91.84-16.24,91.84l11.79,3.44s17.53-65.24,23.59-93.17c6.61-30.44,27.93-71.16,27.75-99.83Z" style="fill:#FFB30E"></path><path d="M165,220.49l.36,5.82s1.65-1.32,1.44-2.91,2.27-2.5,3-4.38Z" style="fill:#ce7a63"></path><path d="M208.19,218.2c-10.31,13.33-12.09,40.62-12,56.85,7.8-22.66,17.92-47.27,19.91-67.39C213.72,210.53,210.78,214.85,208.19,218.2Z" style="opacity:0.2"></path><polygon points="223.03 405.13 213.95 405.13 213.34 384.09 222.42 384.09 223.03 405.13" style="fill:#ce7a63"></polygon><path d="M213.63,404.08h10.21a.73.73,0,0,1,.73.62l1.16,8.07a1.47,1.47,0,0,1-1.46,1.62c-3.56-.06-5.27-.27-9.76-.27-2.76,0-8.47.28-12.28.28s-4-3.77-2.43-4.11c7.12-1.53,9.92-3.64,12.32-5.65A2.32,2.32,0,0,1,213.63,404.08Z" style="fill:#263238"></path><g style="opacity:0.2"><polygon points="213.34 384.1 213.65 394.94 222.74 394.94 222.43 384.1 213.34 384.1"></polygon></g><path d="M199.81,200.63s3.7,70.86,6.19,98.45c2.59,28.71,5.72,93.76,5.72,93.76H224s2.19-64.8,1.34-93.11c-.93-30.86,6.48-70.43,1.48-99.1Z" style="fill:#FFB30E"></path><polygon points="225.07 393.28 210.66 393.28 209.6 388.68 225.74 388.12 225.07 393.28" style="fill:#263238"></polygon><path d="M210.22,405.67a3.47,3.47,0,0,1-2.2-.56,1.19,1.19,0,0,1-.39-1.05.68.68,0,0,1,.37-.57c1.11-.62,4.73,1.24,5.14,1.45a.2.2,0,0,1,.11.22.21.21,0,0,1-.17.18A15.74,15.74,0,0,1,210.22,405.67Zm-1.62-1.88a.93.93,0,0,0-.4.07.29.29,0,0,0-.14.24.78.78,0,0,0,.25.69c.55.49,2,.58,4.06.24A11.84,11.84,0,0,0,208.6,403.79Z" style="fill:#FFB30E"></path><path d="M213,405.34H213c-1.08-.49-3.22-2.45-3-3.48,0-.25.21-.55.8-.61a1.56,1.56,0,0,1,1.2.37c1.14.95,1.35,3.4,1.36,3.5a.23.23,0,0,1-.1.2A.24.24,0,0,1,213,405.34Zm-2.16-3.68h-.13c-.4,0-.42.2-.43.25-.1.61,1.35,2.16,2.46,2.82a5,5,0,0,0-1.16-2.8A1.12,1.12,0,0,0,210.88,401.66Z" style="fill:#FFB30E"></path><polygon points="166.02 394.35 152.19 390.31 152.46 385.6 168.11 389.58 166.02 394.35" style="fill:#263238"></polygon><path d="M147.51,401.41a3.41,3.41,0,0,1-2-1.16,1.2,1.2,0,0,1-.08-1.11.7.7,0,0,1,.51-.45c1.25-.28,4.2,2.52,4.53,2.84a.2.2,0,0,1,.05.24.23.23,0,0,1-.21.13A15.54,15.54,0,0,1,147.51,401.41Zm-1-2.26a.84.84,0,0,0-.4,0,.27.27,0,0,0-.21.18.8.8,0,0,0,0,.74c.39.63,1.8,1.13,3.83,1.37A11.71,11.71,0,0,0,146.48,399.15Z" style="fill:#FFB30E"></path><path d="M150.31,401.89l-.08-.05c-.91-.77-2.41-3.25-2-4.19.11-.22.36-.47,1-.36a1.59,1.59,0,0,1,1,.69c.83,1.24.35,3.64.33,3.74a.2.2,0,0,1-.15.16A.17.17,0,0,1,150.31,401.89Zm-1.05-4.14a.28.28,0,0,0-.13,0c-.39-.08-.45.07-.48.12-.27.56.7,2.45,1.57,3.4a5,5,0,0,0-.33-3A1.09,1.09,0,0,0,149.26,397.75Z" style="fill:#FFB30E"></path><path d="M206.86,113.69l-1.71-.67S205.92,114.48,206.86,113.69Z" style="fill:#263238"></path><path d="M226.89,198.46l1,3.3c.13.26-.18.52-.6.52h-38c-.34,0-.61-.16-.63-.37l-.34-3.3c0-.23.27-.42.63-.42h37.36A.67.67,0,0,1,226.89,198.46Z" style="fill:#263238"></path><path d="M221.75,202.64h1c.2,0,.36-.1.34-.23l-.47-4.29c0-.12-.19-.23-.38-.23h-1c-.19,0-.35.11-.33.23l.47,4.29C221.38,202.54,221.55,202.64,221.75,202.64Z" style="fill:#FFB30E"></path><path d="M192.08,202.64h1c.2,0,.35-.1.34-.23l-.47-4.29c0-.12-.19-.23-.39-.23h-1c-.2,0-.35.11-.34.23l.47,4.29C191.7,202.54,191.88,202.64,192.08,202.64Z" style="fill:#FFB30E"></path><path d="M206.85,202.64h1c.2,0,.36-.1.34-.23l-.47-4.29c0-.12-.19-.23-.38-.23h-1c-.19,0-.35.11-.33.23l.47,4.29C206.48,202.54,206.65,202.64,206.85,202.64Z" style="fill:#FFB30E"></path><path d="M233,200.24l-9.45,2.65,7.64,5.19s5.2-2.64,5.28-6.41Z" style="fill:#ce7a63"></path><path d="M236.7,153.48q2.73,6.15,5.21,12.4c1.68,4.17,3.3,8.34,4.82,12.64.38,1.08.75,2.15,1.12,3.33l.13.44.18.7a8.5,8.5,0,0,1,.21,1.39,10.67,10.67,0,0,1-.09,2.61,18.37,18.37,0,0,1-3.37,7.6,43.32,43.32,0,0,1-10.23,10l-3.06-3.43a61.91,61.91,0,0,0,7.09-10.36,12.32,12.32,0,0,0,1.52-4.77,3,3,0,0,0-.08-.74,1.23,1.23,0,0,0-.08-.25l-.18-.46c-.36-.93-.8-2-1.22-3l-5.28-12.21c-1.79-4.07-3.53-8.18-5.23-12.29Z" style="fill:#ce7a63"></path><path d="M227.79,144.82c9.05,0,13.31,14.71,13.31,14.71l-12.52,10.89s-5.33-8.52-6-13.5C221.93,151.73,223.38,144.82,227.79,144.82Z" style="fill:#263238"></path><polygon points="219 209.04 225.62 213.04 231.16 208.08 223.52 202.89 219 209.04" style="fill:#ce7a63"></polygon><path d="M221.22,143.2a.58.58,0,0,0-.52.22c-2.69,3.53-32.34,42.94-35.24,70.89-.12,1.75-.35,6.19-.35,6.19s4.78-30.42,38.9-76.13a.58.58,0,0,0-.4-.93Z" style="fill:#FFB30E"></path><path d="M221.22,143.2a.58.58,0,0,0-.52.22c-2.69,3.53-32.34,42.94-35.24,70.89-.12,1.75-.35,6.19-.35,6.19s4.78-30.42,38.9-76.13a.58.58,0,0,0-.4-.93Z" style="fill:#fff;opacity:0.4"></path></g></svg>